<?xml version="1.0" encoding="UTF-8" standalone="no"?>
<!DOCTYPE svg PUBLIC "-//W3C//DTD SVG 1.1//EN"
 "http://www.w3.org/Graphics/SVG/1.1/DTD/svg11.dtd">
<!-- Generated by graphviz version 2.28.0 (20110509.1545)
 -->
<!-- Title: _anonymous_0 Pages: 1 -->
<svg width="1320pt" height="564pt"
 viewBox="0.00 0.00 1320.00 564.00" xmlns="http://www.w3.org/2000/svg" xmlns:xlink="http://www.w3.org/1999/xlink">
<g id="graph1" class="graph" transform="scale(1 1) rotate(0) translate(4 560)">
<title>_anonymous_0</title>
<polygon fill="white" stroke="white" points="-4,5 -4,-560 1317,-560 1317,5 -4,5"/>
<!-- org_liveSense_jdbc_h2 -->
<g id="node1" class="node"><title>org_liveSense_jdbc_h2</title>
<polygon fill="yellow" stroke="black" points="554.529,-519 554.529,-555 703.471,-555 703.471,-519 554.529,-519"/>
<text text-anchor="middle" x="629" y="-543" font-family="Arial" font-size="8.00">liveSense :: JDBC :: H2</text>
<polyline fill="none" stroke="black" points="554.529,-537.801 703.471,-537.801 "/>
<text text-anchor="middle" x="629" y="-525.301" font-family="Arial" font-size="8.00">org.liveSense.jdbc.h2(2&#45;SNAPSHOT)</text>
</g>
<!-- org_apache_felix_http_jetty -->
<g id="node2" class="node"><title>org_apache_felix_http_jetty</title>
<polygon fill="green" stroke="black" points="439.969,-445 439.969,-481 568.031,-481 568.031,-445 439.969,-445"/>
<text text-anchor="middle" x="504" y="-469" font-family="Arial" font-size="8.00">Apache Felix Http Jetty</text>
<polyline fill="none" stroke="black" points="439.969,-463.801 568.031,-463.801 "/>
<text text-anchor="middle" x="504" y="-451.301" font-family="Arial" font-size="8.00">org.apache.felix.http.jetty(2.2.0)</text>
</g>
<!-- org_liveSense_jdbc_h2&#45;&gt;org_apache_felix_http_jetty -->
<g id="edge2" class="edge"><title>org_liveSense_jdbc_h2&#45;&gt;org_apache_felix_http_jetty</title>
<path fill="none" stroke="yellow" d="M599.377,-518.937C582.377,-509.145 560.841,-496.74 542.536,-486.197"/>
<polygon fill="yellow" stroke="yellow" points="544.256,-483.148 533.844,-481.19 540.762,-489.214 544.256,-483.148"/>
</g>
<!-- slf4j_api -->
<g id="node3" class="node"><title>slf4j_api</title>
<polygon fill="green" stroke="black" points="701.877,-445 701.877,-481 768.123,-481 768.123,-445 701.877,-445"/>
<text text-anchor="middle" x="735" y="-469" font-family="Arial" font-size="8.00">slf4j&#45;api</text>
<polyline fill="none" stroke="black" points="701.877,-463.801 768.123,-463.801 "/>
<text text-anchor="middle" x="735" y="-451.301" font-family="Arial" font-size="8.00">slf4j.api(1.6.1)</text>
</g>
<!-- org_liveSense_jdbc_h2&#45;&gt;slf4j_api -->
<g id="edge4" class="edge"><title>org_liveSense_jdbc_h2&#45;&gt;slf4j_api</title>
<path fill="none" stroke="yellow" d="M654.121,-518.937C668.143,-509.412 685.806,-497.415 701.045,-487.063"/>
<polygon fill="yellow" stroke="yellow" points="703.387,-489.704 709.692,-481.19 699.454,-483.914 703.387,-489.704"/>
</g>
<!-- org_apache_felix_http_jetty&#45;&gt;slf4j_api -->
<g id="edge8" class="edge"><title>org_apache_felix_http_jetty&#45;&gt;slf4j_api</title>
<path fill="none" stroke="green" d="M568.066,-463C609.231,-463 650.396,-463 691.561,-463"/>
<polygon fill="green" stroke="green" points="691.744,-466.5 701.744,-463 691.744,-459.5 691.744,-466.5"/>
</g>
<!-- org_apache_sling_commons_logservice -->
<g id="node4" class="node"><title>org_apache_sling_commons_logservice</title>
<polygon fill="#3182bd" stroke="black" points="624.955,-1 624.955,-37 809.045,-37 809.045,-1 624.955,-1"/>
<text text-anchor="middle" x="717" y="-25" font-family="Arial" font-size="8.00">Apache Sling OSGi LogService Implementation</text>
<polyline fill="none" stroke="black" points="624.955,-19.8008 809.045,-19.8008 "/>
<text text-anchor="middle" x="717" y="-7.30078" font-family="Arial" font-size="8.00">org.apache.sling.commons.logservice(1.0.0)</text>
</g>
<!-- org_apache_felix_http_jetty&#45;&gt;org_apache_sling_commons_logservice -->
<g id="edge6" class="edge"><title>org_apache_felix_http_jetty&#45;&gt;org_apache_sling_commons_logservice</title>
<path fill="none" stroke="green" d="M439.577,-459.18C337.402,-453.809 143.554,-439.693 83,-408 34.2087,-382.464 0,-371.07 0,-316 0,-316 0,-316 0,-166 0,-42.0738 416.474,-22.2406 614.6,-19.817"/>
<polygon fill="green" stroke="green" points="614.772,-23.3155 624.733,-19.706 614.695,-16.3159 614.772,-23.3155"/>
</g>
<!-- org_apache_felix_configadmin -->
<g id="node5" class="node"><title>org_apache_felix_configadmin</title>
<polygon fill="#3182bd" stroke="black" points="477.295,-75 477.295,-111 642.705,-111 642.705,-75 477.295,-75"/>
<text text-anchor="middle" x="560" y="-99" font-family="Arial" font-size="8.00">Apache Felix Configuration Admin Service</text>
<polyline fill="none" stroke="black" points="477.295,-93.8008 642.705,-93.8008 "/>
<text text-anchor="middle" x="560" y="-81.3008" font-family="Arial" font-size="8.00">org.apache.felix.configadmin(1.2.8)</text>
</g>
<!-- org_apache_felix_http_jetty&#45;&gt;org_apache_felix_configadmin -->
<g id="edge10" class="edge"><title>org_apache_felix_http_jetty&#45;&gt;org_apache_felix_configadmin</title>
<path fill="none" stroke="green" d="M439.694,-455.448C311.858,-440.634 38,-399.191 38,-316 38,-316 38,-316 38,-240 38,-198.248 26.0845,-176.061 57,-148 86.7004,-121.042 330.145,-105.06 467.159,-98.1173"/>
<polygon fill="green" stroke="green" points="467.428,-101.608 477.24,-97.6131 467.078,-94.6171 467.428,-101.608"/>
</g>
<!-- ch_qos_logback_classic -->
<g id="node6" class="node"><title>ch_qos_logback_classic</title>
<polygon fill="#deebf7" stroke="black" points="588.643,-371 588.643,-407 707.357,-407 707.357,-371 588.643,-371"/>
<text text-anchor="middle" x="648" y="-395" font-family="Arial" font-size="8.00">Logback Classic Module</text>
<polyline fill="none" stroke="black" points="588.643,-389.801 707.357,-389.801 "/>
<text text-anchor="middle" x="648" y="-377.301" font-family="Arial" font-size="8.00">ch.qos.logback.classic(1.0.3)</text>
</g>
<!-- slf4j_api&#45;&gt;ch_qos_logback_classic -->
<g id="edge14" class="edge"><title>slf4j_api&#45;&gt;ch_qos_logback_classic</title>
<path fill="none" stroke="#9ecae1" d="M708.542,-444.937C696.374,-435.679 682.178,-424.086 670.524,-413.938"/>
<polygon fill="#9ecae1" stroke="#9ecae1" points="672.721,-411.209 662.918,-407.19 668.075,-416.445 672.721,-411.209"/>
</g>
<!-- org_apache_sling_commons_logservice&#45;&gt;slf4j_api -->
<g id="edge12" class="edge"><title>org_apache_sling_commons_logservice&#45;&gt;slf4j_api</title>
<path fill="none" stroke="#3182bd" d="M809.316,-23.6315C976.44,-32.74 1312,-63.7586 1312,-166 1312,-316 1312,-316 1312,-316 1312,-425.912 913.536,-453.972 778.864,-460.317"/>
<polygon fill="#3182bd" stroke="#3182bd" points="778.347,-456.837 768.516,-460.786 778.664,-463.83 778.347,-456.837"/>
</g>
<!-- org_apache_felix_configadmin&#45;&gt;org_apache_sling_commons_logservice -->
<g id="edge72" class="edge"><title>org_apache_felix_configadmin&#45;&gt;org_apache_sling_commons_logservice</title>
<path fill="none" stroke="#bdbdbd" d="M597.207,-74.937C619.124,-64.886 647.044,-52.0819 670.415,-41.3638"/>
<polygon fill="#bdbdbd" stroke="#bdbdbd" points="672.158,-44.4151 679.789,-37.0651 669.24,-38.0523 672.158,-44.4151"/>
</g>
<!-- ch_qos_logback_classic&#45;&gt;org_apache_felix_http_jetty -->
<g id="edge18" class="edge"><title>ch_qos_logback_classic&#45;&gt;org_apache_felix_http_jetty</title>
<path fill="none" stroke="#deebf7" d="M613.62,-407.19C593.723,-417.138 568.497,-429.751 547.261,-440.369"/>
<polygon fill="#deebf7" stroke="#deebf7" points="545.505,-437.334 538.126,-444.937 548.636,-443.595 545.505,-437.334"/>
</g>
<!-- ch_qos_logback_classic&#45;&gt;slf4j_api -->
<g id="edge20" class="edge"><title>ch_qos_logback_classic&#45;&gt;slf4j_api</title>
<path fill="none" stroke="#deebf7" d="M674.625,-407.19C686.812,-416.469 701.005,-428.067 712.636,-438.201"/>
<polygon fill="#deebf7" stroke="#deebf7" points="710.421,-440.915 720.222,-444.937 715.068,-435.68 710.421,-440.915"/>
</g>
<!-- ch_qos_logback_core -->
<g id="node7" class="node"><title>ch_qos_logback_core</title>
<polygon fill="#bdbdbd" stroke="black" points="346.863,-297 346.863,-333 457.137,-333 457.137,-297 346.863,-297"/>
<text text-anchor="middle" x="402" y="-321" font-family="Arial" font-size="8.00">Logback Core Module</text>
<polyline fill="none" stroke="black" points="346.863,-315.801 457.137,-315.801 "/>
<text text-anchor="middle" x="402" y="-303.301" font-family="Arial" font-size="8.00">ch.qos.logback.core(1.0.3)</text>
</g>
<!-- ch_qos_logback_classic&#45;&gt;ch_qos_logback_core -->
<g id="edge16" class="edge"><title>ch_qos_logback_classic&#45;&gt;ch_qos_logback_core</title>
<path fill="none" stroke="#deebf7" d="M589.701,-370.937C552.921,-360.172 505.351,-346.249 467.303,-335.113"/>
<polygon fill="#deebf7" stroke="#deebf7" points="467.927,-331.649 457.346,-332.199 465.96,-338.367 467.927,-331.649"/>
</g>
<!-- groovy_all -->
<g id="node8" class="node"><title>groovy_all</title>
<polygon fill="#bdbdbd" stroke="black" points="541.1,-297 541.1,-333 614.9,-333 614.9,-297 541.1,-297"/>
<text text-anchor="middle" x="578" y="-321" font-family="Arial" font-size="8.00">Groovy Runtime</text>
<polyline fill="none" stroke="black" points="541.1,-315.801 614.9,-315.801 "/>
<text text-anchor="middle" x="578" y="-303.301" font-family="Arial" font-size="8.00">groovy&#45;all(1.8.2)</text>
</g>
<!-- ch_qos_logback_classic&#45;&gt;groovy_all -->
<g id="edge22" class="edge"><title>ch_qos_logback_classic&#45;&gt;groovy_all</title>
<path fill="none" stroke="#deebf7" d="M631.411,-370.937C622.648,-361.924 611.732,-350.696 602.057,-340.744"/>
<polygon fill="#deebf7" stroke="#deebf7" points="604.437,-338.171 594.956,-333.441 599.418,-343.05 604.437,-338.171"/>
</g>
<!-- ch_qos_logback_core&#45;&gt;org_apache_felix_http_jetty -->
<g id="edge26" class="edge"><title>ch_qos_logback_core&#45;&gt;org_apache_felix_http_jetty</title>
<path fill="none" stroke="#bdbdbd" d="M414.141,-333.378C431.998,-358.939 465.46,-406.835 486.128,-436.418"/>
<polygon fill="#bdbdbd" stroke="#bdbdbd" points="483.503,-438.773 492.1,-444.966 489.242,-434.764 483.503,-438.773"/>
</g>
<!-- org_glassfish_javax_mail -->
<g id="node9" class="node"><title>org_glassfish_javax_mail</title>
<polygon fill="#bdbdbd" stroke="black" points="99.752,-223 99.752,-259 252.248,-259 252.248,-223 99.752,-223"/>
<text text-anchor="middle" x="176" y="-247" font-family="Arial" font-size="8.00">javax.mail API v.1.4</text>
<polyline fill="none" stroke="black" points="99.752,-241.801 252.248,-241.801 "/>
<text text-anchor="middle" x="176" y="-229.301" font-family="Arial" font-size="8.00">org.glassfish.javax.mail(3.0.0.Preview)</text>
</g>
<!-- ch_qos_logback_core&#45;&gt;org_glassfish_javax_mail -->
<g id="edge24" class="edge"><title>ch_qos_logback_core&#45;&gt;org_glassfish_javax_mail</title>
<path fill="none" stroke="#bdbdbd" d="M348.441,-296.937C315.77,-286.529 273.833,-273.168 239.496,-262.229"/>
<polygon fill="#bdbdbd" stroke="#bdbdbd" points="240.156,-258.766 229.566,-259.065 238.031,-265.436 240.156,-258.766"/>
</g>
<!-- groovy_all&#45;&gt;org_apache_felix_http_jetty -->
<g id="edge30" class="edge"><title>groovy_all&#45;&gt;org_apache_felix_http_jetty</title>
<path fill="none" stroke="#bdbdbd" d="M567.572,-333.305C561.372,-343.799 553.479,-357.53 547,-370 535.7,-391.749 523.992,-417.006 515.652,-435.548"/>
<polygon fill="#bdbdbd" stroke="#bdbdbd" points="512.387,-434.278 511.504,-444.836 518.778,-437.133 512.387,-434.278"/>
</g>
<!-- org_apache_servicemix_bundles_xstream -->
<g id="node10" class="node"><title>org_apache_servicemix_bundles_xstream</title>
<polygon fill="#bdbdbd" stroke="black" points="270.627,-223 270.627,-259 457.373,-259 457.373,-223 270.627,-223"/>
<text text-anchor="middle" x="364" y="-247" font-family="Arial" font-size="8.00">Apache ServiceMix :: Bundles :: xstream</text>
<polyline fill="none" stroke="black" points="270.627,-241.801 457.373,-241.801 "/>
<text text-anchor="middle" x="364" y="-229.301" font-family="Arial" font-size="8.00">org.apache.servicemix.bundles.xstream(1.4.1.1)</text>
</g>
<!-- groovy_all&#45;&gt;org_apache_servicemix_bundles_xstream -->
<g id="edge28" class="edge"><title>groovy_all&#45;&gt;org_apache_servicemix_bundles_xstream</title>
<path fill="none" stroke="#bdbdbd" d="M540.724,-301.459C508.735,-290.696 462.02,-274.979 424.653,-262.406"/>
<polygon fill="#bdbdbd" stroke="#bdbdbd" points="425.47,-258.989 414.876,-259.117 423.238,-265.623 425.47,-258.989"/>
</g>
<!-- org_apache_sling_scripting_jsp -->
<g id="node11" class="node"><title>org_apache_sling_scripting_jsp</title>
<polygon fill="#bdbdbd" stroke="black" points="691.631,-223 691.631,-259 838.369,-259 838.369,-223 691.631,-223"/>
<text text-anchor="middle" x="765" y="-247" font-family="Arial" font-size="8.00">Apache Sling Scripting JSP Support</text>
<polyline fill="none" stroke="black" points="691.631,-241.801 838.369,-241.801 "/>
<text text-anchor="middle" x="765" y="-229.301" font-family="Arial" font-size="8.00">org.apache.sling.scripting.jsp(2.0.24)</text>
</g>
<!-- groovy_all&#45;&gt;org_apache_sling_scripting_jsp -->
<g id="edge32" class="edge"><title>groovy_all&#45;&gt;org_apache_sling_scripting_jsp</title>
<path fill="none" stroke="#bdbdbd" d="M614.945,-299.775C642.318,-289.236 680.05,-274.708 710.829,-262.857"/>
<polygon fill="#bdbdbd" stroke="#bdbdbd" points="712.481,-265.972 720.556,-259.112 709.966,-259.439 712.481,-265.972"/>
</g>
<!-- org_apache_servicemix_bundles_xpp3 -->
<g id="node12" class="node"><title>org_apache_servicemix_bundles_xpp3</title>
<polygon fill="#bdbdbd" stroke="black" points="65.7285,-149 65.7285,-185 254.271,-185 254.271,-149 65.7285,-149"/>
<text text-anchor="middle" x="160" y="-173" font-family="Arial" font-size="8.00">Apache ServiceMix :: Bundles :: xpp3</text>
<polyline fill="none" stroke="black" points="65.7285,-167.801 254.271,-167.801 "/>
<text text-anchor="middle" x="160" y="-155.301" font-family="Arial" font-size="8.00">org.apache.servicemix.bundles.xpp3(1.1.0.4c_5)</text>
</g>
<!-- org_apache_servicemix_bundles_xstream&#45;&gt;org_apache_servicemix_bundles_xpp3 -->
<g id="edge34" class="edge"><title>org_apache_servicemix_bundles_xstream&#45;&gt;org_apache_servicemix_bundles_xpp3</title>
<path fill="none" stroke="#bdbdbd" d="M315.655,-222.937C286.418,-212.618 248.958,-199.397 218.114,-188.511"/>
<polygon fill="#bdbdbd" stroke="#bdbdbd" points="218.946,-185.093 208.351,-185.065 216.616,-191.694 218.946,-185.093"/>
</g>
<!-- org_apache_servicemix_bundles_cglib -->
<g id="node13" class="node"><title>org_apache_servicemix_bundles_cglib</title>
<polygon fill="#bdbdbd" stroke="black" points="272.176,-149 272.176,-185 455.824,-185 455.824,-149 272.176,-149"/>
<text text-anchor="middle" x="364" y="-173" font-family="Arial" font-size="8.00">Apache ServiceMix Bundles: cglib&#45;2.1_3</text>
<polyline fill="none" stroke="black" points="272.176,-167.801 455.824,-167.801 "/>
<text text-anchor="middle" x="364" y="-155.301" font-family="Arial" font-size="8.00">org.apache.servicemix.bundles.cglib(2.1.0.3_4)</text>
</g>
<!-- org_apache_servicemix_bundles_xstream&#45;&gt;org_apache_servicemix_bundles_cglib -->
<g id="edge36" class="edge"><title>org_apache_servicemix_bundles_xstream&#45;&gt;org_apache_servicemix_bundles_cglib</title>
<path fill="none" stroke="#bdbdbd" d="M364,-222.937C364,-214.807 364,-204.876 364,-195.705"/>
<polygon fill="#bdbdbd" stroke="#bdbdbd" points="367.5,-195.441 364,-185.441 360.5,-195.441 367.5,-195.441"/>
</g>
<!-- org_apache_sling_scripting_jsp&#45;&gt;org_apache_felix_http_jetty -->
<g id="edge44" class="edge"><title>org_apache_sling_scripting_jsp&#45;&gt;org_apache_felix_http_jetty</title>
<path fill="none" stroke="#bdbdbd" d="M735.295,-259.033C697.145,-281.666 629.912,-324.168 580,-370 573.762,-375.728 544.486,-411.673 524.148,-436.897"/>
<polygon fill="#bdbdbd" stroke="#bdbdbd" points="521.184,-434.996 517.639,-444.981 526.637,-439.386 521.184,-434.996"/>
</g>
<!-- org_apache_sling_scripting_jsp&#45;&gt;slf4j_api -->
<g id="edge48" class="edge"><title>org_apache_sling_scripting_jsp&#45;&gt;slf4j_api</title>
<path fill="none" stroke="#bdbdbd" d="M764.242,-259.086C762.705,-289.314 758.521,-354.113 749,-408 747.443,-416.814 745.185,-426.303 742.936,-434.829"/>
<polygon fill="#bdbdbd" stroke="#bdbdbd" points="739.514,-434.074 740.244,-444.643 746.265,-435.925 739.514,-434.074"/>
</g>
<!-- org_apache_felix_scr -->
<g id="node14" class="node"><title>org_apache_felix_scr</title>
<polygon fill="#bdbdbd" stroke="black" points="602.309,-149 602.309,-185 739.691,-185 739.691,-149 602.309,-149"/>
<text text-anchor="middle" x="671" y="-173" font-family="Arial" font-size="8.00">Apache Felix Declarative Services</text>
<polyline fill="none" stroke="black" points="602.309,-167.801 739.691,-167.801 "/>
<text text-anchor="middle" x="671" y="-155.301" font-family="Arial" font-size="8.00">org.apache.felix.scr(1.6.0)</text>
</g>
<!-- org_apache_sling_scripting_jsp&#45;&gt;org_apache_felix_scr -->
<g id="edge38" class="edge"><title>org_apache_sling_scripting_jsp&#45;&gt;org_apache_felix_scr</title>
<path fill="none" stroke="#bdbdbd" d="M742.723,-222.937C730.404,-213.501 714.917,-201.639 701.49,-191.354"/>
<polygon fill="#bdbdbd" stroke="#bdbdbd" points="703.51,-188.492 693.443,-185.19 699.253,-194.049 703.51,-188.492"/>
</g>
<!-- org_apache_sling_api -->
<g id="node15" class="node"><title>org_apache_sling_api</title>
<polygon fill="#bdbdbd" stroke="black" points="473.637,-149 473.637,-185 584.363,-185 584.363,-149 473.637,-149"/>
<text text-anchor="middle" x="529" y="-173" font-family="Arial" font-size="8.00">Apache Sling API</text>
<polyline fill="none" stroke="black" points="473.637,-167.801 584.363,-167.801 "/>
<text text-anchor="middle" x="529" y="-155.301" font-family="Arial" font-size="8.00">org.apache.sling.api(2.2.4)</text>
</g>
<!-- org_apache_sling_scripting_jsp&#45;&gt;org_apache_sling_api -->
<g id="edge40" class="edge"><title>org_apache_sling_scripting_jsp&#45;&gt;org_apache_sling_api</title>
<path fill="none" stroke="#bdbdbd" d="M709.071,-222.937C674.684,-212.446 630.465,-198.955 594.452,-187.968"/>
<polygon fill="#bdbdbd" stroke="#bdbdbd" points="595.113,-184.511 584.527,-184.941 593.071,-191.206 595.113,-184.511"/>
</g>
<!-- org_apache_sling_commons_classloader -->
<g id="node16" class="node"><title>org_apache_sling_commons_classloader</title>
<polygon fill="#bdbdbd" stroke="black" points="1106.29,-149 1106.29,-185 1283.71,-185 1283.71,-149 1106.29,-149"/>
<text text-anchor="middle" x="1195" y="-173" font-family="Arial" font-size="8.00">Apache Sling Dynamic Class Loader Support</text>
<polyline fill="none" stroke="black" points="1106.29,-167.801 1283.71,-167.801 "/>
<text text-anchor="middle" x="1195" y="-155.301" font-family="Arial" font-size="8.00">org.apache.sling.commons.classloader(1.3.0)</text>
</g>
<!-- org_apache_sling_scripting_jsp&#45;&gt;org_apache_sling_commons_classloader -->
<g id="edge42" class="edge"><title>org_apache_sling_scripting_jsp&#45;&gt;org_apache_sling_commons_classloader</title>
<path fill="none" stroke="#bdbdbd" d="M838.588,-228.472C903.611,-218.185 1001.29,-202.485 1096.03,-186.151"/>
<polygon fill="#bdbdbd" stroke="#bdbdbd" points="1096.82,-189.566 1106.08,-184.414 1095.63,-182.669 1096.82,-189.566"/>
</g>
<!-- org_apache_sling_scripting_api -->
<g id="node17" class="node"><title>org_apache_sling_scripting_api</title>
<polygon fill="#bdbdbd" stroke="black" points="919.957,-149 919.957,-185 1088.04,-185 1088.04,-149 919.957,-149"/>
<text text-anchor="middle" x="1004" y="-173" font-family="Arial" font-size="8.00">Apache Sling Scripting Implementation API</text>
<polyline fill="none" stroke="black" points="919.957,-167.801 1088.04,-167.801 "/>
<text text-anchor="middle" x="1004" y="-155.301" font-family="Arial" font-size="8.00">org.apache.sling.scripting.api(2.1.4)</text>
</g>
<!-- org_apache_sling_scripting_jsp&#45;&gt;org_apache_sling_scripting_api -->
<g id="edge46" class="edge"><title>org_apache_sling_scripting_jsp&#45;&gt;org_apache_sling_scripting_api</title>
<path fill="none" stroke="#bdbdbd" d="M821.64,-222.937C856.338,-212.484 900.921,-199.053 937.319,-188.088"/>
<polygon fill="#bdbdbd" stroke="#bdbdbd" points="938.788,-191.301 947.353,-185.065 936.769,-184.598 938.788,-191.301"/>
</g>
<!-- org_apache_felix_eventadmin -->
<g id="node18" class="node"><title>org_apache_felix_eventadmin</title>
<polygon fill="#bdbdbd" stroke="black" points="758.184,-149 758.184,-185 901.816,-185 901.816,-149 758.184,-149"/>
<text text-anchor="middle" x="830" y="-173" font-family="Arial" font-size="8.00">Apache Felix EventAdmin</text>
<polyline fill="none" stroke="black" points="758.184,-167.801 901.816,-167.801 "/>
<text text-anchor="middle" x="830" y="-155.301" font-family="Arial" font-size="8.00">org.apache.felix.eventadmin(1.2.14)</text>
</g>
<!-- org_apache_sling_scripting_jsp&#45;&gt;org_apache_felix_eventadmin -->
<g id="edge50" class="edge"><title>org_apache_sling_scripting_jsp&#45;&gt;org_apache_felix_eventadmin</title>
<path fill="none" stroke="#bdbdbd" d="M780.404,-222.937C788.461,-214.012 798.479,-202.916 807.397,-193.037"/>
<polygon fill="#bdbdbd" stroke="#bdbdbd" points="810.152,-195.209 814.255,-185.441 804.956,-190.518 810.152,-195.209"/>
</g>
<!-- org_apache_felix_scr&#45;&gt;org_apache_sling_commons_logservice -->
<g id="edge54" class="edge"><title>org_apache_felix_scr&#45;&gt;org_apache_sling_commons_logservice</title>
<path fill="none" stroke="#bdbdbd" d="M673.204,-148.686C675.906,-129.921 681.24,-99.2722 690,-74 693.277,-64.5452 697.865,-54.6323 702.33,-45.918"/>
<polygon fill="#bdbdbd" stroke="#bdbdbd" points="705.461,-47.4843 707.059,-37.0107 699.279,-44.2016 705.461,-47.4843"/>
</g>
<!-- org_apache_felix_scr&#45;&gt;org_apache_felix_configadmin -->
<g id="edge56" class="edge"><title>org_apache_felix_scr&#45;&gt;org_apache_felix_configadmin</title>
<path fill="none" stroke="#bdbdbd" d="M644.695,-148.937C629.873,-139.323 611.169,-127.19 595.109,-116.774"/>
<polygon fill="#bdbdbd" stroke="#bdbdbd" points="596.796,-113.696 586.501,-111.19 592.986,-119.568 596.796,-113.696"/>
</g>
<!-- org_apache_felix_metatype -->
<g id="node19" class="node"><title>org_apache_felix_metatype</title>
<polygon fill="#bdbdbd" stroke="black" points="698.635,-75 698.635,-111 829.365,-111 829.365,-75 698.635,-75"/>
<text text-anchor="middle" x="764" y="-99" font-family="Arial" font-size="8.00">Apache Felix Metatype Service</text>
<polyline fill="none" stroke="black" points="698.635,-93.8008 829.365,-93.8008 "/>
<text text-anchor="middle" x="764" y="-81.3008" font-family="Arial" font-size="8.00">org.apache.felix.metatype(1.0.4)</text>
</g>
<!-- org_apache_felix_scr&#45;&gt;org_apache_felix_metatype -->
<g id="edge52" class="edge"><title>org_apache_felix_scr&#45;&gt;org_apache_felix_metatype</title>
<path fill="none" stroke="#bdbdbd" d="M693.04,-148.937C705.228,-139.501 720.55,-127.639 733.834,-117.354"/>
<polygon fill="#bdbdbd" stroke="#bdbdbd" points="736.032,-120.079 741.796,-111.19 731.746,-114.544 736.032,-120.079"/>
</g>
<!-- org_apache_sling_api&#45;&gt;org_apache_felix_http_jetty -->
<g id="edge58" class="edge"><title>org_apache_sling_api&#45;&gt;org_apache_felix_http_jetty</title>
<path fill="none" stroke="#bdbdbd" d="M527.544,-185.125C523.379,-234.101 511.393,-375.058 506.316,-434.761"/>
<polygon fill="#bdbdbd" stroke="#bdbdbd" points="502.812,-434.662 505.452,-444.923 509.787,-435.255 502.812,-434.662"/>
</g>
<!-- org_apache_sling_api&#45;&gt;slf4j_api -->
<g id="edge60" class="edge"><title>org_apache_sling_api&#45;&gt;slf4j_api</title>
<path fill="none" stroke="#bdbdbd" d="M551.28,-185.006C591.133,-216.72 674.343,-289.05 716,-370 726.404,-390.218 731.111,-415.7 733.241,-434.716"/>
<polygon fill="#bdbdbd" stroke="#bdbdbd" points="729.769,-435.184 734.199,-444.809 736.738,-434.522 729.769,-435.184"/>
</g>
<!-- org_apache_sling_commons_classloader&#45;&gt;slf4j_api -->
<g id="edge62" class="edge"><title>org_apache_sling_commons_classloader&#45;&gt;slf4j_api</title>
<path fill="none" stroke="#bdbdbd" d="M1168.21,-185.125C1089.51,-235.422 859.031,-382.728 770.344,-439.411"/>
<polygon fill="#bdbdbd" stroke="#bdbdbd" points="768.261,-436.588 761.72,-444.923 772.031,-442.486 768.261,-436.588"/>
</g>
<!-- org_apache_felix_eventadmin&#45;&gt;org_apache_sling_commons_logservice -->
<g id="edge66" class="edge"><title>org_apache_felix_eventadmin&#45;&gt;org_apache_sling_commons_logservice</title>
<path fill="none" stroke="#bdbdbd" d="M837.383,-148.871C844.633,-129.156 852.66,-96.5957 838,-74 828.685,-59.6424 814.565,-49.0692 799.219,-41.2933"/>
<polygon fill="#bdbdbd" stroke="#bdbdbd" points="800.611,-38.081 790.069,-37.0308 797.655,-44.4263 800.611,-38.081"/>
</g>
<!-- org_apache_felix_eventadmin&#45;&gt;org_apache_felix_configadmin -->
<g id="edge68" class="edge"><title>org_apache_felix_eventadmin&#45;&gt;org_apache_felix_configadmin</title>
<path fill="none" stroke="#bdbdbd" d="M766.014,-148.937C726.312,-138.35 675.156,-124.708 633.753,-113.667"/>
<polygon fill="#bdbdbd" stroke="#bdbdbd" points="634.558,-110.26 623.994,-111.065 632.755,-117.024 634.558,-110.26"/>
</g>
<!-- org_apache_felix_eventadmin&#45;&gt;org_apache_felix_metatype -->
<g id="edge64" class="edge"><title>org_apache_felix_eventadmin&#45;&gt;org_apache_felix_metatype</title>
<path fill="none" stroke="#bdbdbd" d="M814.359,-148.937C806.178,-140.012 796.006,-128.916 786.951,-119.037"/>
<polygon fill="#bdbdbd" stroke="#bdbdbd" points="789.325,-116.447 779.987,-111.441 784.165,-121.177 789.325,-116.447"/>
</g>
<!-- org_apache_felix_metatype&#45;&gt;org_apache_sling_commons_logservice -->
<g id="edge70" class="edge"><title>org_apache_felix_metatype&#45;&gt;org_apache_sling_commons_logservice</title>
<path fill="none" stroke="#bdbdbd" d="M752.862,-74.937C747.209,-66.277 740.221,-55.5731 733.92,-45.9207"/>
<polygon fill="#bdbdbd" stroke="#bdbdbd" points="736.782,-43.9013 728.385,-37.4407 730.92,-47.7277 736.782,-43.9013"/>
</g>
</g>
</svg>
