<?xml version="1.0" encoding="UTF-8" standalone="no"?>
<!DOCTYPE svg PUBLIC "-//W3C//DTD SVG 1.1//EN"
 "http://www.w3.org/Graphics/SVG/1.1/DTD/svg11.dtd">
<!-- Generated by graphviz version 2.28.0 (20110509.1545)
 -->
<!-- Title: _anonymous_0 Pages: 1 -->
<svg width="2359pt" height="564pt"
 viewBox="0.00 0.00 2359.00 564.00" xmlns="http://www.w3.org/2000/svg" xmlns:xlink="http://www.w3.org/1999/xlink">
<g id="graph1" class="graph" transform="scale(1 1) rotate(0) translate(4 560)">
<title>_anonymous_0</title>
<polygon fill="white" stroke="white" points="-4,5 -4,-560 2356,-560 2356,5 -4,5"/>
<!-- org_liveSense_sample_markdown -->
<g id="node1" class="node"><title>org_liveSense_sample_markdown</title>
<polygon fill="yellow" stroke="black" points="1088.97,-519 1088.97,-555 1277.03,-555 1277.03,-519 1088.97,-519"/>
<text text-anchor="middle" x="1183" y="-543" font-family="Arial" font-size="8.00">liveSense :: Sample :: Markdown</text>
<polyline fill="none" stroke="black" points="1088.97,-537.801 1277.03,-537.801 "/>
<text text-anchor="middle" x="1183" y="-525.301" font-family="Arial" font-size="8.00">org.liveSense.sample.markdown(2&#45;SNAPSHOT)</text>
</g>
<!-- org_apache_felix_scr -->
<g id="node2" class="node"><title>org_apache_felix_scr</title>
<polygon fill="green" stroke="black" points="789.309,-445 789.309,-481 926.691,-481 926.691,-445 789.309,-445"/>
<text text-anchor="middle" x="858" y="-469" font-family="Arial" font-size="8.00">Apache Felix Declarative Services</text>
<polyline fill="none" stroke="black" points="789.309,-463.801 926.691,-463.801 "/>
<text text-anchor="middle" x="858" y="-451.301" font-family="Arial" font-size="8.00">org.apache.felix.scr(1.6.0)</text>
</g>
<!-- org_liveSense_sample_markdown&#45;&gt;org_apache_felix_scr -->
<g id="edge2" class="edge"><title>org_liveSense_sample_markdown&#45;&gt;org_apache_felix_scr</title>
<path fill="none" stroke="yellow" d="M1103.97,-518.965C1057.93,-508.985 998.5,-496.003 936.812,-482.171"/>
<polygon fill="yellow" stroke="yellow" points="937.418,-478.72 926.894,-479.944 935.884,-485.55 937.418,-478.72"/>
</g>
<!-- org_apache_jackrabbit_jackrabbit_jcr_commons -->
<g id="node3" class="node"><title>org_apache_jackrabbit_jackrabbit_jcr_commons</title>
<polygon fill="green" stroke="black" points="-0.259766,-445 -0.259766,-481 200.26,-481 200.26,-445 -0.259766,-445"/>
<text text-anchor="middle" x="100" y="-469" font-family="Arial" font-size="8.00">Jackrabbit JCR Commons</text>
<polyline fill="none" stroke="black" points="-0.259766,-463.801 200.26,-463.801 "/>
<text text-anchor="middle" x="100" y="-451.301" font-family="Arial" font-size="8.00">org.apache.jackrabbit.jackrabbit&#45;jcr&#45;commons(2.4.0)</text>
</g>
<!-- org_liveSense_sample_markdown&#45;&gt;org_apache_jackrabbit_jackrabbit_jcr_commons -->
<g id="edge4" class="edge"><title>org_liveSense_sample_markdown&#45;&gt;org_apache_jackrabbit_jackrabbit_jcr_commons</title>
<path fill="none" stroke="yellow" d="M1088.7,-534.162C916.248,-530.057 538.385,-517.615 210.493,-482.097"/>
<polygon fill="yellow" stroke="yellow" points="210.639,-478.592 200.318,-480.986 209.879,-485.551 210.639,-478.592"/>
</g>
<!-- org_apache_commons_beanutils -->
<g id="node4" class="node"><title>org_apache_commons_beanutils</title>
<polygon fill="green" stroke="black" points="1727.85,-445 1727.85,-481 1878.15,-481 1878.15,-445 1727.85,-445"/>
<text text-anchor="middle" x="1803" y="-469" font-family="Arial" font-size="8.00">Commons BeanUtils</text>
<polyline fill="none" stroke="black" points="1727.85,-463.801 1878.15,-463.801 "/>
<text text-anchor="middle" x="1803" y="-451.301" font-family="Arial" font-size="8.00">org.apache.commons.beanutils(1.8.3)</text>
</g>
<!-- org_liveSense_sample_markdown&#45;&gt;org_apache_commons_beanutils -->
<g id="edge6" class="edge"><title>org_liveSense_sample_markdown&#45;&gt;org_apache_commons_beanutils</title>
<path fill="none" stroke="yellow" d="M1277.14,-529.593C1382.11,-521.746 1557.06,-506.579 1717.48,-481.981"/>
<polygon fill="yellow" stroke="yellow" points="1718.19,-485.412 1727.53,-480.423 1717.12,-478.495 1718.19,-485.412"/>
</g>
<!-- javax_jcr -->
<g id="node5" class="node"><title>javax_jcr</title>
<polygon fill="green" stroke="black" points="382.031,-445 382.031,-481 565.969,-481 565.969,-445 382.031,-445"/>
<text text-anchor="middle" x="474" y="-469" font-family="Arial" font-size="8.00">Content Repository for JavaTM Technology API</text>
<polyline fill="none" stroke="black" points="382.031,-463.801 565.969,-463.801 "/>
<text text-anchor="middle" x="474" y="-451.301" font-family="Arial" font-size="8.00">javax.jcr(2.0)</text>
</g>
<!-- org_liveSense_sample_markdown&#45;&gt;javax_jcr -->
<g id="edge8" class="edge"><title>org_liveSense_sample_markdown&#45;&gt;javax_jcr</title>
<path fill="none" stroke="yellow" d="M1088.72,-530.202C971.059,-522.386 763.523,-506.692 576.182,-482.095"/>
<polygon fill="yellow" stroke="yellow" points="576.519,-478.609 566.146,-480.766 575.6,-485.549 576.519,-478.609"/>
</g>
<!-- org_liveSense_service_markdown -->
<g id="node6" class="node"><title>org_liveSense_service_markdown</title>
<polygon fill="green" stroke="black" points="584.195,-445 584.195,-481 771.805,-481 771.805,-445 584.195,-445"/>
<text text-anchor="middle" x="678" y="-469" font-family="Arial" font-size="8.00">liveSense :: Service :: Markdown</text>
<polyline fill="none" stroke="black" points="584.195,-463.801 771.805,-463.801 "/>
<text text-anchor="middle" x="678" y="-451.301" font-family="Arial" font-size="8.00">org.liveSense.service.markdown(2&#45;SNAPSHOT)</text>
</g>
<!-- org_liveSense_sample_markdown&#45;&gt;org_liveSense_service_markdown -->
<g id="edge10" class="edge"><title>org_liveSense_sample_markdown&#45;&gt;org_liveSense_service_markdown</title>
<path fill="none" stroke="yellow" d="M1088.79,-524.498C1009.41,-514.547 892.591,-499.296 781.908,-482.269"/>
<polygon fill="yellow" stroke="yellow" points="782.321,-478.791 771.904,-480.722 781.252,-485.709 782.321,-478.791"/>
</g>
<!-- org_apache_sling_jcr_api -->
<g id="node7" class="node"><title>org_apache_sling_jcr_api</title>
<polygon fill="green" stroke="black" points="218.293,-445 218.293,-481 363.707,-481 363.707,-445 218.293,-445"/>
<text text-anchor="middle" x="291" y="-469" font-family="Arial" font-size="8.00">Apache Sling Repository API Bundle</text>
<polyline fill="none" stroke="black" points="218.293,-463.801 363.707,-463.801 "/>
<text text-anchor="middle" x="291" y="-451.301" font-family="Arial" font-size="8.00">org.apache.sling.jcr.api(2.1.0)</text>
</g>
<!-- org_liveSense_sample_markdown&#45;&gt;org_apache_sling_jcr_api -->
<g id="edge12" class="edge"><title>org_liveSense_sample_markdown&#45;&gt;org_apache_sling_jcr_api</title>
<path fill="none" stroke="yellow" d="M1088.68,-534.28C939.035,-530.54 638.028,-518.903 373.943,-482.003"/>
<polygon fill="yellow" stroke="yellow" points="374.166,-478.499 363.775,-480.567 373.187,-485.431 374.166,-478.499"/>
</g>
<!-- org_apache_sling_commons_osgi -->
<g id="node8" class="node"><title>org_apache_sling_commons_osgi</title>
<polygon fill="green" stroke="black" points="944.746,-445 944.746,-481 1097.25,-481 1097.25,-445 944.746,-445"/>
<text text-anchor="middle" x="1021" y="-469" font-family="Arial" font-size="8.00">Apache Sling Commons OSGi support</text>
<polyline fill="none" stroke="black" points="944.746,-463.801 1097.25,-463.801 "/>
<text text-anchor="middle" x="1021" y="-451.301" font-family="Arial" font-size="8.00">org.apache.sling.commons.osgi(2.1.0)</text>
</g>
<!-- org_liveSense_sample_markdown&#45;&gt;org_apache_sling_commons_osgi -->
<g id="edge14" class="edge"><title>org_liveSense_sample_markdown&#45;&gt;org_apache_sling_commons_osgi</title>
<path fill="none" stroke="yellow" d="M1144.61,-518.937C1121.89,-508.841 1092.93,-495.968 1068.75,-485.221"/>
<polygon fill="yellow" stroke="yellow" points="1069.96,-481.928 1059.4,-481.065 1067.11,-488.325 1069.96,-481.928"/>
</g>
<!-- org_apache_felix_http_jetty -->
<g id="node9" class="node"><title>org_apache_felix_http_jetty</title>
<polygon fill="green" stroke="black" points="1895.97,-445 1895.97,-481 2024.03,-481 2024.03,-445 1895.97,-445"/>
<text text-anchor="middle" x="1960" y="-469" font-family="Arial" font-size="8.00">Apache Felix Http Jetty</text>
<polyline fill="none" stroke="black" points="1895.97,-463.801 2024.03,-463.801 "/>
<text text-anchor="middle" x="1960" y="-451.301" font-family="Arial" font-size="8.00">org.apache.felix.http.jetty(2.2.0)</text>
</g>
<!-- org_liveSense_sample_markdown&#45;&gt;org_apache_felix_http_jetty -->
<g id="edge16" class="edge"><title>org_liveSense_sample_markdown&#45;&gt;org_apache_felix_http_jetty</title>
<path fill="none" stroke="yellow" d="M1277.24,-533.712C1410.86,-529.367 1662.98,-517.116 1885.72,-482.062"/>
<polygon fill="yellow" stroke="yellow" points="1886.31,-485.512 1895.63,-480.483 1885.21,-478.599 1886.31,-485.512"/>
</g>
<!-- net_entropysoft_transmorph -->
<g id="node10" class="node"><title>net_entropysoft_transmorph</title>
<polygon fill="green" stroke="black" points="1115.64,-445 1115.64,-481 1250.36,-481 1250.36,-445 1115.64,-445"/>
<text text-anchor="middle" x="1183" y="-469" font-family="Arial" font-size="8.00">Transmorph</text>
<polyline fill="none" stroke="black" points="1115.64,-463.801 1250.36,-463.801 "/>
<text text-anchor="middle" x="1183" y="-451.301" font-family="Arial" font-size="8.00">net.entropysoft.transmorph(3.1.1)</text>
</g>
<!-- org_liveSense_sample_markdown&#45;&gt;net_entropysoft_transmorph -->
<g id="edge18" class="edge"><title>org_liveSense_sample_markdown&#45;&gt;net_entropysoft_transmorph</title>
<path fill="none" stroke="yellow" d="M1183,-518.937C1183,-510.807 1183,-500.876 1183,-491.705"/>
<polygon fill="yellow" stroke="yellow" points="1186.5,-491.441 1183,-481.441 1179.5,-491.441 1186.5,-491.441"/>
</g>
<!-- com_google_guava -->
<g id="node11" class="node"><title>com_google_guava</title>
<polygon fill="green" stroke="black" points="1268.85,-445 1268.85,-481 1435.15,-481 1435.15,-445 1268.85,-445"/>
<text text-anchor="middle" x="1352" y="-469" font-family="Arial" font-size="8.00">Guava: Google Core Libraries for Java 1.5</text>
<polyline fill="none" stroke="black" points="1268.85,-463.801 1435.15,-463.801 "/>
<text text-anchor="middle" x="1352" y="-451.301" font-family="Arial" font-size="8.00">com.google.guava(10.0.0)</text>
</g>
<!-- org_liveSense_sample_markdown&#45;&gt;com_google_guava -->
<g id="edge20" class="edge"><title>org_liveSense_sample_markdown&#45;&gt;com_google_guava</title>
<path fill="none" stroke="yellow" d="M1223.05,-518.937C1246.85,-508.797 1277.23,-495.854 1302.52,-485.078"/>
<polygon fill="yellow" stroke="yellow" points="1304.12,-488.205 1311.94,-481.065 1301.37,-481.765 1304.12,-488.205"/>
</g>
<!-- org_apache_sling_api -->
<g id="node12" class="node"><title>org_apache_sling_api</title>
<polygon fill="green" stroke="black" points="1598.64,-445 1598.64,-481 1709.36,-481 1709.36,-445 1598.64,-445"/>
<text text-anchor="middle" x="1654" y="-469" font-family="Arial" font-size="8.00">Apache Sling API</text>
<polyline fill="none" stroke="black" points="1598.64,-463.801 1709.36,-463.801 "/>
<text text-anchor="middle" x="1654" y="-451.301" font-family="Arial" font-size="8.00">org.apache.sling.api(2.2.4)</text>
</g>
<!-- org_liveSense_sample_markdown&#45;&gt;org_apache_sling_api -->
<g id="edge22" class="edge"><title>org_liveSense_sample_markdown&#45;&gt;org_apache_sling_api</title>
<path fill="none" stroke="yellow" d="M1277.14,-527.199C1357.48,-518.83 1476.15,-504.443 1588.63,-481.915"/>
<polygon fill="yellow" stroke="yellow" points="1589.35,-485.342 1598.45,-479.925 1587.96,-478.482 1589.35,-485.342"/>
</g>
<!-- org_apache_commons_lang -->
<g id="node13" class="node"><title>org_apache_commons_lang</title>
<polygon fill="green" stroke="black" points="1453.64,-445 1453.64,-481 1580.36,-481 1580.36,-445 1453.64,-445"/>
<text text-anchor="middle" x="1517" y="-469" font-family="Arial" font-size="8.00">Commons Lang</text>
<polyline fill="none" stroke="black" points="1453.64,-463.801 1580.36,-463.801 "/>
<text text-anchor="middle" x="1517" y="-451.301" font-family="Arial" font-size="8.00">org.apache.commons.lang(2.5)</text>
</g>
<!-- org_liveSense_sample_markdown&#45;&gt;org_apache_commons_lang -->
<g id="edge24" class="edge"><title>org_liveSense_sample_markdown&#45;&gt;org_apache_commons_lang</title>
<path fill="none" stroke="yellow" d="M1269.29,-518.999C1317.73,-509.251 1379.52,-496.487 1443.47,-482.08"/>
<polygon fill="yellow" stroke="yellow" points="1444.35,-485.469 1453.33,-479.849 1442.81,-478.642 1444.35,-485.469"/>
</g>
<!-- slf4j_api -->
<g id="node14" class="node"><title>slf4j_api</title>
<polygon fill="green" stroke="black" points="2041.88,-445 2041.88,-481 2108.12,-481 2108.12,-445 2041.88,-445"/>
<text text-anchor="middle" x="2075" y="-469" font-family="Arial" font-size="8.00">slf4j&#45;api</text>
<polyline fill="none" stroke="black" points="2041.88,-463.801 2108.12,-463.801 "/>
<text text-anchor="middle" x="2075" y="-451.301" font-family="Arial" font-size="8.00">slf4j.api(1.6.1)</text>
</g>
<!-- org_liveSense_sample_markdown&#45;&gt;slf4j_api -->
<g id="edge26" class="edge"><title>org_liveSense_sample_markdown&#45;&gt;slf4j_api</title>
<path fill="none" stroke="yellow" d="M1277.23,-534.05C1463.5,-529.549 1873.74,-516.255 2031.4,-481.86"/>
<polygon fill="yellow" stroke="yellow" points="2032.45,-485.211 2041.41,-479.564 2030.88,-478.388 2032.45,-485.211"/>
</g>
<!-- org_apache_felix_metatype -->
<g id="node15" class="node"><title>org_apache_felix_metatype</title>
<polygon fill="#3182bd" stroke="black" points="1024.63,-75 1024.63,-111 1155.37,-111 1155.37,-75 1024.63,-75"/>
<text text-anchor="middle" x="1090" y="-99" font-family="Arial" font-size="8.00">Apache Felix Metatype Service</text>
<polyline fill="none" stroke="black" points="1024.63,-93.8008 1155.37,-93.8008 "/>
<text text-anchor="middle" x="1090" y="-81.3008" font-family="Arial" font-size="8.00">org.apache.felix.metatype(1.0.4)</text>
</g>
<!-- org_apache_felix_scr&#45;&gt;org_apache_felix_metatype -->
<g id="edge28" class="edge"><title>org_apache_felix_scr&#45;&gt;org_apache_felix_metatype</title>
<path fill="none" stroke="green" d="M891.025,-444.946C930.991,-421.666 993,-375.896 993,-316 993,-316 993,-316 993,-240 993,-190.487 1032.18,-144.936 1060.74,-118.311"/>
<polygon fill="green" stroke="green" points="1063.41,-120.621 1068.47,-111.316 1058.71,-115.43 1063.41,-120.621"/>
</g>
<!-- org_apache_sling_commons_logservice -->
<g id="node16" class="node"><title>org_apache_sling_commons_logservice</title>
<polygon fill="#3182bd" stroke="black" points="1218.96,-1 1218.96,-37 1403.04,-37 1403.04,-1 1218.96,-1"/>
<text text-anchor="middle" x="1311" y="-25" font-family="Arial" font-size="8.00">Apache Sling OSGi LogService Implementation</text>
<polyline fill="none" stroke="black" points="1218.96,-19.8008 1403.04,-19.8008 "/>
<text text-anchor="middle" x="1311" y="-7.30078" font-family="Arial" font-size="8.00">org.apache.sling.commons.logservice(1.0.0)</text>
</g>
<!-- org_apache_felix_scr&#45;&gt;org_apache_sling_commons_logservice -->
<g id="edge30" class="edge"><title>org_apache_felix_scr&#45;&gt;org_apache_sling_commons_logservice</title>
<path fill="none" stroke="green" d="M872.504,-444.85C893.007,-418.796 928,-366.879 928,-316 928,-316 928,-316 928,-166 928,-109.417 966.191,-100.845 1016,-74 1075.03,-42.1835 1149.34,-28.713 1208.6,-23.1818"/>
<polygon fill="green" stroke="green" points="1209.07,-26.6541 1218.73,-22.2995 1208.47,-19.6805 1209.07,-26.6541"/>
</g>
<!-- org_apache_felix_configadmin -->
<g id="node17" class="node"><title>org_apache_felix_configadmin</title>
<polygon fill="#3182bd" stroke="black" points="1173.29,-75 1173.29,-111 1338.71,-111 1338.71,-75 1173.29,-75"/>
<text text-anchor="middle" x="1256" y="-99" font-family="Arial" font-size="8.00">Apache Felix Configuration Admin Service</text>
<polyline fill="none" stroke="black" points="1173.29,-93.8008 1338.71,-93.8008 "/>
<text text-anchor="middle" x="1256" y="-81.3008" font-family="Arial" font-size="8.00">org.apache.felix.configadmin(1.2.8)</text>
</g>
<!-- org_apache_felix_scr&#45;&gt;org_apache_felix_configadmin -->
<g id="edge32" class="edge"><title>org_apache_felix_scr&#45;&gt;org_apache_felix_configadmin</title>
<path fill="none" stroke="green" d="M918.503,-444.956C1004.03,-419.039 1150,-367.294 1150,-316 1150,-316 1150,-316 1150,-240 1150,-188.962 1192.94,-143.748 1224.16,-117.62"/>
<polygon fill="green" stroke="green" points="1226.66,-120.103 1232.21,-111.082 1222.24,-114.669 1226.66,-120.103"/>
</g>
<!-- org_apache_jackrabbit_jackrabbit_jcr_commons&#45;&gt;javax_jcr -->
<g id="edge34" class="edge"><title>org_apache_jackrabbit_jackrabbit_jcr_commons&#45;&gt;javax_jcr</title>
<path fill="none" stroke="green" d="M146.028,-481.006C167.532,-488.486 193.7,-496.28 218,-500 281.702,-509.753 299.388,-510.323 363,-500 382.461,-496.842 403.12,-490.76 421.272,-484.426"/>
<polygon fill="green" stroke="green" points="422.569,-487.679 430.795,-481.001 420.2,-481.092 422.569,-487.679"/>
</g>
<!-- org_apache_jackrabbit_jackrabbit_api -->
<g id="node18" class="node"><title>org_apache_jackrabbit_jackrabbit_api</title>
<polygon fill="#3182bd" stroke="black" points="204.293,-371 204.293,-407 369.707,-407 369.707,-371 204.293,-371"/>
<text text-anchor="middle" x="287" y="-395" font-family="Arial" font-size="8.00">Apache Jackrabbit API</text>
<polyline fill="none" stroke="black" points="204.293,-389.801 369.707,-389.801 "/>
<text text-anchor="middle" x="287" y="-377.301" font-family="Arial" font-size="8.00">org.apache.jackrabbit.jackrabbit&#45;api(2.4.0)</text>
</g>
<!-- org_apache_jackrabbit_jackrabbit_jcr_commons&#45;&gt;org_apache_jackrabbit_jackrabbit_api -->
<g id="edge36" class="edge"><title>org_apache_jackrabbit_jackrabbit_jcr_commons&#45;&gt;org_apache_jackrabbit_jackrabbit_api</title>
<path fill="none" stroke="green" d="M144.316,-444.937C170.885,-434.707 204.861,-421.626 232.993,-410.794"/>
<polygon fill="green" stroke="green" points="234.603,-413.925 242.678,-407.065 232.088,-407.392 234.603,-413.925"/>
</g>
<!-- org_apache_commons_collections -->
<g id="node19" class="node"><title>org_apache_commons_collections</title>
<polygon fill="#3182bd" stroke="black" points="1479.19,-371 1479.19,-407 1634.81,-407 1634.81,-371 1479.19,-371"/>
<text text-anchor="middle" x="1557" y="-395" font-family="Arial" font-size="8.00">Commons Collections</text>
<polyline fill="none" stroke="black" points="1479.19,-389.801 1634.81,-389.801 "/>
<text text-anchor="middle" x="1557" y="-377.301" font-family="Arial" font-size="8.00">org.apache.commons.collections(3.2.1)</text>
</g>
<!-- org_apache_commons_beanutils&#45;&gt;org_apache_commons_collections -->
<g id="edge38" class="edge"><title>org_apache_commons_beanutils&#45;&gt;org_apache_commons_collections</title>
<path fill="none" stroke="green" d="M1744.7,-444.937C1708.83,-434.439 1662.71,-420.938 1625.15,-409.948"/>
<polygon fill="green" stroke="green" points="1625.89,-406.515 1615.31,-407.065 1623.92,-413.233 1625.89,-406.515"/>
</g>
<!-- jcl_over_slf4j -->
<g id="node20" class="node"><title>jcl_over_slf4j</title>
<polygon fill="#3182bd" stroke="black" points="1691.77,-371 1691.77,-407 1772.23,-407 1772.23,-371 1691.77,-371"/>
<text text-anchor="middle" x="1732" y="-395" font-family="Arial" font-size="8.00">jcl&#45;over&#45;slf4j</text>
<polyline fill="none" stroke="black" points="1691.77,-389.801 1772.23,-389.801 "/>
<text text-anchor="middle" x="1732" y="-377.301" font-family="Arial" font-size="8.00">jcl.over.slf4j(1.6.1)</text>
</g>
<!-- org_apache_commons_beanutils&#45;&gt;jcl_over_slf4j -->
<g id="edge40" class="edge"><title>org_apache_commons_beanutils&#45;&gt;jcl_over_slf4j</title>
<path fill="none" stroke="green" d="M1786.17,-444.937C1777.29,-435.924 1766.21,-424.696 1756.4,-414.744"/>
<polygon fill="green" stroke="green" points="1758.71,-412.104 1749.2,-407.441 1753.73,-417.019 1758.71,-412.104"/>
</g>
<!-- org_liveSense_service_markdown&#45;&gt;org_apache_felix_scr -->
<g id="edge42" class="edge"><title>org_liveSense_service_markdown&#45;&gt;org_apache_felix_scr</title>
<path fill="none" stroke="green" d="M771.867,-463C774.191,-463 776.514,-463 778.838,-463"/>
<polygon fill="green" stroke="green" points="779.026,-466.5 789.026,-463 779.026,-459.5 779.026,-466.5"/>
</g>
<!-- org_liveSense_service_markdown&#45;&gt;org_apache_sling_commons_osgi -->
<g id="edge44" class="edge"><title>org_liveSense_service_markdown&#45;&gt;org_apache_sling_commons_osgi</title>
<path fill="none" stroke="green" d="M721.205,-481.001C741.415,-488.48 766.042,-496.274 789,-500 849.103,-509.753 866.158,-511.242 926,-500 942.268,-496.944 959.327,-491.183 974.429,-485.102"/>
<polygon fill="green" stroke="green" points="976.166,-488.17 984.043,-481.084 973.466,-481.711 976.166,-488.17"/>
</g>
<!-- org_liveSense_service_markdown&#45;&gt;slf4j_api -->
<g id="edge48" class="edge"><title>org_liveSense_service_markdown&#45;&gt;slf4j_api</title>
<path fill="none" stroke="green" d="M721.205,-481.001C741.415,-488.48 766.042,-496.274 789,-500 856.725,-510.99 1958.74,-521.18 2024,-500 2032.38,-497.282 2040.53,-492.614 2047.77,-487.493"/>
<polygon fill="green" stroke="green" points="2049.98,-490.209 2055.81,-481.361 2045.73,-484.643 2049.98,-490.209"/>
</g>
<!-- org_liveSense_core -->
<g id="node21" class="node"><title>org_liveSense_core</title>
<polygon fill="#3182bd" stroke="black" points="1283.65,-371 1283.65,-407 1422.35,-407 1422.35,-371 1283.65,-371"/>
<text text-anchor="middle" x="1353" y="-395" font-family="Arial" font-size="8.00">liveSense :: Core</text>
<polyline fill="none" stroke="black" points="1283.65,-389.801 1422.35,-389.801 "/>
<text text-anchor="middle" x="1353" y="-377.301" font-family="Arial" font-size="8.00">org.liveSense.core(2&#45;SNAPSHOT)</text>
</g>
<!-- org_liveSense_service_markdown&#45;&gt;org_liveSense_core -->
<g id="edge46" class="edge"><title>org_liveSense_service_markdown&#45;&gt;org_liveSense_core</title>
<path fill="none" stroke="green" d="M771.884,-445.139C774.617,-444.742 777.327,-444.361 780,-444 955.481,-420.287 1162.6,-403.527 1273.46,-395.457"/>
<polygon fill="green" stroke="green" points="1273.83,-398.939 1283.55,-394.727 1273.33,-391.958 1273.83,-398.939"/>
</g>
<!-- org_apache_sling_jcr_api&#45;&gt;javax_jcr -->
<g id="edge84" class="edge"><title>org_apache_sling_jcr_api&#45;&gt;javax_jcr</title>
<path fill="none" stroke="#9ecae1" d="M363.914,-463C366.548,-463 369.182,-463 371.816,-463"/>
<polygon fill="#9ecae1" stroke="#9ecae1" points="371.975,-466.5 381.975,-463 371.975,-459.5 371.975,-466.5"/>
</g>
<!-- org_apache_felix_eventadmin -->
<g id="node32" class="node"><title>org_apache_felix_eventadmin</title>
<polygon fill="#bdbdbd" stroke="black" points="1284.18,-149 1284.18,-185 1427.82,-185 1427.82,-149 1284.18,-149"/>
<text text-anchor="middle" x="1356" y="-173" font-family="Arial" font-size="8.00">Apache Felix EventAdmin</text>
<polyline fill="none" stroke="black" points="1284.18,-167.801 1427.82,-167.801 "/>
<text text-anchor="middle" x="1356" y="-155.301" font-family="Arial" font-size="8.00">org.apache.felix.eventadmin(1.2.14)</text>
</g>
<!-- org_apache_sling_commons_osgi&#45;&gt;org_apache_felix_eventadmin -->
<g id="edge56" class="edge"><title>org_apache_sling_commons_osgi&#45;&gt;org_apache_felix_eventadmin</title>
<path fill="none" stroke="#3182bd" d="M1088.04,-444.901C1113.35,-436.412 1141.46,-424.384 1164,-408 1246.95,-347.702 1313.56,-242.676 1341.62,-194.063"/>
<polygon fill="#3182bd" stroke="#3182bd" points="1344.8,-195.544 1346.71,-185.122 1338.72,-192.081 1344.8,-195.544"/>
</g>
<!-- org_apache_felix_http_jetty&#45;&gt;slf4j_api -->
<g id="edge108" class="edge"><title>org_apache_felix_http_jetty&#45;&gt;slf4j_api</title>
<path fill="none" stroke="#bdbdbd" d="M2024.24,-463C2026.69,-463 2029.15,-463 2031.6,-463"/>
<polygon fill="#bdbdbd" stroke="#bdbdbd" points="2031.69,-466.5 2041.69,-463 2031.69,-459.5 2031.69,-466.5"/>
</g>
<!-- org_apache_felix_http_jetty&#45;&gt;org_apache_sling_commons_logservice -->
<g id="edge106" class="edge"><title>org_apache_felix_http_jetty&#45;&gt;org_apache_sling_commons_logservice</title>
<path fill="none" stroke="#bdbdbd" d="M1942.19,-444.955C1917.53,-419.434 1876,-368.637 1876,-316 1876,-316 1876,-316 1876,-166 1876,-71.541 1576.23,-37.2271 1413.39,-25.5558"/>
<polygon fill="#bdbdbd" stroke="#bdbdbd" points="1413.57,-22.0596 1403.35,-24.8521 1413.08,-29.0425 1413.57,-22.0596"/>
</g>
<!-- org_apache_felix_http_jetty&#45;&gt;org_apache_felix_configadmin -->
<g id="edge110" class="edge"><title>org_apache_felix_http_jetty&#45;&gt;org_apache_felix_configadmin</title>
<path fill="none" stroke="#bdbdbd" d="M1895.96,-445.952C1892.94,-445.275 1889.94,-444.621 1887,-444 1796.92,-424.969 1765.2,-449.468 1683,-408 1661.11,-396.956 1663.07,-384.082 1643,-370 1493.3,-264.99 1386.45,-330.972 1275,-186 1260.83,-167.563 1256.55,-141.121 1255.54,-121.313"/>
<polygon fill="#bdbdbd" stroke="#bdbdbd" points="1259.03,-120.989 1255.27,-111.083 1252.03,-121.171 1259.03,-120.989"/>
</g>
<!-- org_apache_sling_api&#45;&gt;org_apache_felix_http_jetty -->
<g id="edge132" class="edge"><title>org_apache_sling_api&#45;&gt;org_apache_felix_http_jetty</title>
<path fill="none" stroke="#bdbdbd" d="M1682.34,-481.051C1695.65,-488.489 1712.06,-496.238 1728,-500 1792.88,-515.317 1812.82,-514.023 1878,-500 1892.01,-496.986 1906.5,-491.381 1919.34,-485.429"/>
<polygon fill="#bdbdbd" stroke="#bdbdbd" points="1920.89,-488.57 1928.37,-481.066 1917.84,-482.268 1920.89,-488.57"/>
</g>
<!-- org_apache_sling_api&#45;&gt;slf4j_api -->
<g id="edge134" class="edge"><title>org_apache_sling_api&#45;&gt;slf4j_api</title>
<path fill="none" stroke="#bdbdbd" d="M1682.34,-481.051C1695.65,-488.489 1712.06,-496.238 1728,-500 1792.02,-515.113 1961.43,-520.305 2024,-500 2032.38,-497.282 2040.53,-492.614 2047.77,-487.493"/>
<polygon fill="#bdbdbd" stroke="#bdbdbd" points="2049.98,-490.209 2055.81,-481.361 2045.73,-484.643 2049.98,-490.209"/>
</g>
<!-- ch_qos_logback_classic -->
<g id="node22" class="node"><title>ch_qos_logback_classic</title>
<polygon fill="#bdbdbd" stroke="black" points="1987.64,-371 1987.64,-407 2106.36,-407 2106.36,-371 1987.64,-371"/>
<text text-anchor="middle" x="2047" y="-395" font-family="Arial" font-size="8.00">Logback Classic Module</text>
<polyline fill="none" stroke="black" points="1987.64,-389.801 2106.36,-389.801 "/>
<text text-anchor="middle" x="2047" y="-377.301" font-family="Arial" font-size="8.00">ch.qos.logback.classic(1.0.3)</text>
</g>
<!-- slf4j_api&#45;&gt;ch_qos_logback_classic -->
<g id="edge86" class="edge"><title>slf4j_api&#45;&gt;ch_qos_logback_classic</title>
<path fill="none" stroke="#deebf7" d="M2062.52,-444.937C2058.41,-436.63 2054.21,-426.444 2050.98,-417.108"/>
<polygon fill="#deebf7" stroke="#deebf7" points="2054.27,-415.909 2047.9,-407.441 2047.6,-418.031 2054.27,-415.909"/>
</g>
<!-- org_apache_felix_metatype&#45;&gt;org_apache_sling_commons_logservice -->
<g id="edge50" class="edge"><title>org_apache_felix_metatype&#45;&gt;org_apache_sling_commons_logservice</title>
<path fill="none" stroke="#3182bd" d="M1142.37,-74.937C1174.32,-64.5286 1215.33,-51.1679 1248.91,-40.2287"/>
<polygon fill="#3182bd" stroke="#3182bd" points="1250.2,-43.4907 1258.62,-37.0651 1248.03,-36.835 1250.2,-43.4907"/>
</g>
<!-- org_apache_sling_commons_logservice&#45;&gt;slf4j_api -->
<g id="edge82" class="edge"><title>org_apache_sling_commons_logservice&#45;&gt;slf4j_api</title>
<path fill="none" stroke="#9ecae1" d="M1403.29,-23.3233C1657.82,-33.708 2351,-70.7346 2351,-166 2351,-316 2351,-316 2351,-316 2351,-420.017 2195.94,-450.128 2118.26,-458.687"/>
<polygon fill="#9ecae1" stroke="#9ecae1" points="2117.88,-455.208 2108.29,-459.714 2118.6,-462.171 2117.88,-455.208"/>
</g>
<!-- org_apache_felix_configadmin&#45;&gt;org_apache_sling_commons_logservice -->
<g id="edge130" class="edge"><title>org_apache_felix_configadmin&#45;&gt;org_apache_sling_commons_logservice</title>
<path fill="none" stroke="#bdbdbd" d="M1269.03,-74.937C1275.72,-66.1886 1283.99,-55.3545 1291.42,-45.6256"/>
<polygon fill="#bdbdbd" stroke="#bdbdbd" points="1294.39,-47.5121 1297.68,-37.4407 1288.83,-43.2627 1294.39,-47.5121"/>
</g>
<!-- org_apache_jackrabbit_jackrabbit_api&#45;&gt;javax_jcr -->
<g id="edge52" class="edge"><title>org_apache_jackrabbit_jackrabbit_api&#45;&gt;javax_jcr</title>
<path fill="none" stroke="#3182bd" d="M331.322,-407.065C357.892,-417.295 391.868,-430.377 419.999,-441.208"/>
<polygon fill="#3182bd" stroke="#3182bd" points="419.094,-444.61 429.684,-444.937 421.609,-438.078 419.094,-444.61"/>
</g>
<!-- jcl_over_slf4j&#45;&gt;slf4j_api -->
<g id="edge54" class="edge"><title>jcl_over_slf4j&#45;&gt;slf4j_api</title>
<path fill="none" stroke="#3182bd" d="M1772.27,-398.083C1788.34,-401.257 1807.03,-404.879 1824,-408 1913.62,-424.484 1940.82,-417.742 2032.15,-444.098"/>
<polygon fill="#3182bd" stroke="#3182bd" points="2031.21,-447.47 2041.79,-446.933 2033.18,-440.754 2031.21,-447.47"/>
</g>
<!-- org_liveSense_core&#45;&gt;org_apache_felix_scr -->
<g id="edge58" class="edge"><title>org_liveSense_core&#45;&gt;org_apache_felix_scr</title>
<path fill="none" stroke="#3182bd" d="M1283.33,-399.722C1263.52,-402.446 1241.92,-405.378 1222,-408 1098.21,-424.296 1063.86,-421.715 936.937,-443.93"/>
<polygon fill="#3182bd" stroke="#3182bd" points="936.064,-440.53 926.826,-445.718 937.282,-447.424 936.064,-440.53"/>
</g>
<!-- org_liveSense_core&#45;&gt;org_apache_jackrabbit_jackrabbit_jcr_commons -->
<g id="edge60" class="edge"><title>org_liveSense_core&#45;&gt;org_apache_jackrabbit_jackrabbit_jcr_commons</title>
<path fill="none" stroke="#3182bd" d="M1283.47,-390.466C1106.13,-392.259 622.468,-400.944 210.342,-443.929"/>
<polygon fill="#3182bd" stroke="#3182bd" points="209.894,-440.457 200.315,-444.983 210.626,-447.418 209.894,-440.457"/>
</g>
<!-- org_liveSense_core&#45;&gt;org_apache_commons_beanutils -->
<g id="edge62" class="edge"><title>org_liveSense_core&#45;&gt;org_apache_commons_beanutils</title>
<path fill="none" stroke="#3182bd" d="M1422.59,-400.805C1438.18,-403.199 1454.65,-405.706 1470,-408 1577.03,-424.002 1606.69,-424.44 1717.6,-443.99"/>
<polygon fill="#3182bd" stroke="#3182bd" points="1717.05,-447.447 1727.51,-445.749 1718.27,-440.555 1717.05,-447.447"/>
</g>
<!-- org_liveSense_core&#45;&gt;javax_jcr -->
<g id="edge64" class="edge"><title>org_liveSense_core&#45;&gt;javax_jcr</title>
<path fill="none" stroke="#3182bd" d="M1283.55,-392.325C1148.98,-397.373 843.241,-411.494 576.41,-443.901"/>
<polygon fill="#3182bd" stroke="#3182bd" points="575.637,-440.469 566.137,-445.16 576.488,-447.417 575.637,-440.469"/>
</g>
<!-- org_liveSense_core&#45;&gt;org_apache_sling_jcr_api -->
<g id="edge66" class="edge"><title>org_liveSense_core&#45;&gt;org_apache_sling_jcr_api</title>
<path fill="none" stroke="#3182bd" d="M1283.42,-389.998C1123.98,-390.822 719.935,-397.609 373.736,-444.039"/>
<polygon fill="#3182bd" stroke="#3182bd" points="373.208,-440.579 363.769,-445.389 374.148,-447.515 373.208,-440.579"/>
</g>
<!-- org_liveSense_core&#45;&gt;org_apache_sling_commons_osgi -->
<g id="edge68" class="edge"><title>org_liveSense_core&#45;&gt;org_apache_sling_commons_osgi</title>
<path fill="none" stroke="#3182bd" d="M1283.58,-405.054C1232.41,-416.151 1162.47,-431.319 1107.64,-443.211"/>
<polygon fill="#3182bd" stroke="#3182bd" points="1106.62,-439.851 1097.58,-445.391 1108.1,-446.692 1106.62,-439.851"/>
</g>
<!-- org_liveSense_core&#45;&gt;org_apache_felix_http_jetty -->
<g id="edge70" class="edge"><title>org_liveSense_core&#45;&gt;org_apache_felix_http_jetty</title>
<path fill="none" stroke="#3182bd" d="M1422.5,-401.47C1438.1,-403.828 1454.59,-406.152 1470,-408 1651.45,-429.766 1701.71,-414.209 1885.62,-443.912"/>
<polygon fill="#3182bd" stroke="#3182bd" points="1885.19,-447.388 1895.63,-445.551 1886.32,-440.48 1885.19,-447.388"/>
</g>
<!-- org_liveSense_core&#45;&gt;net_entropysoft_transmorph -->
<g id="edge72" class="edge"><title>org_liveSense_core&#45;&gt;net_entropysoft_transmorph</title>
<path fill="none" stroke="#3182bd" d="M1312.71,-407.065C1288.76,-417.206 1258.2,-430.149 1232.76,-440.924"/>
<polygon fill="#3182bd" stroke="#3182bd" points="1231.13,-437.814 1223.29,-444.937 1233.86,-444.26 1231.13,-437.814"/>
</g>
<!-- org_liveSense_core&#45;&gt;com_google_guava -->
<g id="edge74" class="edge"><title>org_liveSense_core&#45;&gt;com_google_guava</title>
<path fill="none" stroke="#3182bd" d="M1352.76,-407.441C1352.64,-415.625 1352.51,-425.572 1352.38,-434.719"/>
<polygon fill="#3182bd" stroke="#3182bd" points="1348.88,-434.889 1352.24,-444.937 1355.88,-434.987 1348.88,-434.889"/>
</g>
<!-- org_liveSense_core&#45;&gt;org_apache_sling_api -->
<g id="edge76" class="edge"><title>org_liveSense_core&#45;&gt;org_apache_sling_api</title>
<path fill="none" stroke="#3182bd" d="M1422.39,-405.011C1467.12,-414.889 1526.75,-428.431 1588.46,-443.916"/>
<polygon fill="#3182bd" stroke="#3182bd" points="1587.82,-447.366 1598.37,-446.418 1589.53,-440.579 1587.82,-447.366"/>
</g>
<!-- org_liveSense_core&#45;&gt;org_apache_commons_lang -->
<g id="edge78" class="edge"><title>org_liveSense_core&#45;&gt;org_apache_commons_lang</title>
<path fill="none" stroke="#3182bd" d="M1391.87,-407.065C1414.87,-417.161 1444.19,-430.035 1468.67,-440.781"/>
<polygon fill="#3182bd" stroke="#3182bd" points="1467.57,-444.122 1478.13,-444.937 1470.38,-437.712 1467.57,-444.122"/>
</g>
<!-- org_liveSense_core&#45;&gt;slf4j_api -->
<g id="edge80" class="edge"><title>org_liveSense_core&#45;&gt;slf4j_api</title>
<path fill="none" stroke="#3182bd" d="M1422.47,-401.726C1438.07,-404.07 1454.57,-406.324 1470,-408 1715.98,-434.732 1787.25,-387.058 2031.53,-444.095"/>
<polygon fill="#3182bd" stroke="#3182bd" points="2030.87,-447.537 2041.41,-446.437 2032.49,-440.725 2030.87,-447.537"/>
</g>
<!-- ch_qos_logback_classic&#45;&gt;org_apache_felix_http_jetty -->
<g id="edge90" class="edge"><title>ch_qos_logback_classic&#45;&gt;org_apache_felix_http_jetty</title>
<path fill="none" stroke="#bdbdbd" d="M2026.23,-407.19C2014.91,-416.558 2000.73,-428.29 1988.4,-438.493"/>
<polygon fill="#bdbdbd" stroke="#bdbdbd" points="1986.09,-435.865 1980.62,-444.937 1990.55,-441.258 1986.09,-435.865"/>
</g>
<!-- ch_qos_logback_classic&#45;&gt;slf4j_api -->
<g id="edge92" class="edge"><title>ch_qos_logback_classic&#45;&gt;slf4j_api</title>
<path fill="none" stroke="#bdbdbd" d="M2059.66,-407.441C2063.78,-415.803 2067.97,-426.005 2071.17,-435.315"/>
<polygon fill="#bdbdbd" stroke="#bdbdbd" points="2067.86,-436.454 2074.2,-444.937 2074.53,-434.347 2067.86,-436.454"/>
</g>
<!-- ch_qos_logback_core -->
<g id="node23" class="node"><title>ch_qos_logback_core</title>
<polygon fill="#bdbdbd" stroke="black" points="1903.86,-297 1903.86,-333 2014.14,-333 2014.14,-297 1903.86,-297"/>
<text text-anchor="middle" x="1959" y="-321" font-family="Arial" font-size="8.00">Logback Core Module</text>
<polyline fill="none" stroke="black" points="1903.86,-315.801 2014.14,-315.801 "/>
<text text-anchor="middle" x="1959" y="-303.301" font-family="Arial" font-size="8.00">ch.qos.logback.core(1.0.3)</text>
</g>
<!-- ch_qos_logback_classic&#45;&gt;ch_qos_logback_core -->
<g id="edge88" class="edge"><title>ch_qos_logback_classic&#45;&gt;ch_qos_logback_core</title>
<path fill="none" stroke="#bdbdbd" d="M2026.15,-370.937C2014.72,-361.59 2000.39,-349.863 1987.9,-339.646"/>
<polygon fill="#bdbdbd" stroke="#bdbdbd" points="1989.97,-336.814 1980.01,-333.19 1985.53,-342.231 1989.97,-336.814"/>
</g>
<!-- groovy_all -->
<g id="node24" class="node"><title>groovy_all</title>
<polygon fill="#bdbdbd" stroke="black" points="2032.1,-297 2032.1,-333 2105.9,-333 2105.9,-297 2032.1,-297"/>
<text text-anchor="middle" x="2069" y="-321" font-family="Arial" font-size="8.00">Groovy Runtime</text>
<polyline fill="none" stroke="black" points="2032.1,-315.801 2105.9,-315.801 "/>
<text text-anchor="middle" x="2069" y="-303.301" font-family="Arial" font-size="8.00">groovy&#45;all(1.8.2)</text>
</g>
<!-- ch_qos_logback_classic&#45;&gt;groovy_all -->
<g id="edge94" class="edge"><title>ch_qos_logback_classic&#45;&gt;groovy_all</title>
<path fill="none" stroke="#bdbdbd" d="M2052.21,-370.937C2054.75,-362.63 2057.86,-352.444 2060.72,-343.108"/>
<polygon fill="#bdbdbd" stroke="#bdbdbd" points="2064.1,-344.027 2063.67,-333.441 2057.4,-341.981 2064.1,-344.027"/>
</g>
<!-- ch_qos_logback_core&#45;&gt;org_apache_felix_http_jetty -->
<g id="edge98" class="edge"><title>ch_qos_logback_core&#45;&gt;org_apache_felix_http_jetty</title>
<path fill="none" stroke="#bdbdbd" d="M1953.73,-333.32C1950.81,-343.821 1947.48,-357.552 1946,-370 1944.01,-386.771 1943.86,-391.247 1946,-408 1947.13,-416.879 1949.27,-426.385 1951.54,-434.909"/>
<polygon fill="#bdbdbd" stroke="#bdbdbd" points="1948.23,-436.043 1954.32,-444.709 1954.96,-434.134 1948.23,-436.043"/>
</g>
<!-- org_glassfish_javax_mail -->
<g id="node25" class="node"><title>org_glassfish_javax_mail</title>
<polygon fill="#bdbdbd" stroke="black" points="1903.75,-223 1903.75,-259 2056.25,-259 2056.25,-223 1903.75,-223"/>
<text text-anchor="middle" x="1980" y="-247" font-family="Arial" font-size="8.00">javax.mail API v.1.4</text>
<polyline fill="none" stroke="black" points="1903.75,-241.801 2056.25,-241.801 "/>
<text text-anchor="middle" x="1980" y="-229.301" font-family="Arial" font-size="8.00">org.glassfish.javax.mail(3.0.0.Preview)</text>
</g>
<!-- ch_qos_logback_core&#45;&gt;org_glassfish_javax_mail -->
<g id="edge96" class="edge"><title>ch_qos_logback_core&#45;&gt;org_glassfish_javax_mail</title>
<path fill="none" stroke="#bdbdbd" d="M1963.98,-296.937C1966.4,-288.63 1969.37,-278.444 1972.09,-269.108"/>
<polygon fill="#bdbdbd" stroke="#bdbdbd" points="1975.47,-270.021 1974.91,-259.441 1968.75,-268.061 1975.47,-270.021"/>
</g>
<!-- groovy_all&#45;&gt;org_apache_felix_http_jetty -->
<g id="edge102" class="edge"><title>groovy_all&#45;&gt;org_apache_felix_http_jetty</title>
<path fill="none" stroke="#bdbdbd" d="M2031.87,-329.779C2013.25,-338.54 1991.97,-351.72 1979,-370 1965.62,-388.856 1961.24,-415.037 1959.98,-434.65"/>
<polygon fill="#bdbdbd" stroke="#bdbdbd" points="1956.48,-434.649 1959.57,-444.783 1963.47,-434.932 1956.48,-434.649"/>
</g>
<!-- org_apache_servicemix_bundles_xstream -->
<g id="node26" class="node"><title>org_apache_servicemix_bundles_xstream</title>
<polygon fill="#bdbdbd" stroke="black" points="2136.63,-223 2136.63,-259 2323.37,-259 2323.37,-223 2136.63,-223"/>
<text text-anchor="middle" x="2230" y="-247" font-family="Arial" font-size="8.00">Apache ServiceMix :: Bundles :: xstream</text>
<polyline fill="none" stroke="black" points="2136.63,-241.801 2323.37,-241.801 "/>
<text text-anchor="middle" x="2230" y="-229.301" font-family="Arial" font-size="8.00">org.apache.servicemix.bundles.xstream(1.4.1.1)</text>
</g>
<!-- groovy_all&#45;&gt;org_apache_servicemix_bundles_xstream -->
<g id="edge100" class="edge"><title>groovy_all&#45;&gt;org_apache_servicemix_bundles_xstream</title>
<path fill="none" stroke="#bdbdbd" d="M2105.94,-297.482C2128.64,-287.329 2157.96,-274.218 2182.39,-263.291"/>
<polygon fill="#bdbdbd" stroke="#bdbdbd" points="2184.14,-266.344 2191.84,-259.067 2181.28,-259.954 2184.14,-266.344"/>
</g>
<!-- org_apache_sling_scripting_jsp -->
<g id="node27" class="node"><title>org_apache_sling_scripting_jsp</title>
<polygon fill="#bdbdbd" stroke="black" points="1589.63,-223 1589.63,-259 1736.37,-259 1736.37,-223 1589.63,-223"/>
<text text-anchor="middle" x="1663" y="-247" font-family="Arial" font-size="8.00">Apache Sling Scripting JSP Support</text>
<polyline fill="none" stroke="black" points="1589.63,-241.801 1736.37,-241.801 "/>
<text text-anchor="middle" x="1663" y="-229.301" font-family="Arial" font-size="8.00">org.apache.sling.scripting.jsp(2.0.24)</text>
</g>
<!-- groovy_all&#45;&gt;org_apache_sling_scripting_jsp -->
<g id="edge104" class="edge"><title>groovy_all&#45;&gt;org_apache_sling_scripting_jsp</title>
<path fill="none" stroke="#bdbdbd" d="M2032.08,-298.732C2029.04,-297.725 2025.98,-296.796 2023,-296 1929.98,-271.162 1820.19,-256.763 1746.53,-249.175"/>
<polygon fill="#bdbdbd" stroke="#bdbdbd" points="1746.68,-245.672 1736.38,-248.149 1745.98,-252.637 1746.68,-245.672"/>
</g>
<!-- org_apache_servicemix_bundles_xpp3 -->
<g id="node28" class="node"><title>org_apache_servicemix_bundles_xpp3</title>
<polygon fill="#bdbdbd" stroke="black" points="2134.73,-149 2134.73,-185 2323.27,-185 2323.27,-149 2134.73,-149"/>
<text text-anchor="middle" x="2229" y="-173" font-family="Arial" font-size="8.00">Apache ServiceMix :: Bundles :: xpp3</text>
<polyline fill="none" stroke="black" points="2134.73,-167.801 2323.27,-167.801 "/>
<text text-anchor="middle" x="2229" y="-155.301" font-family="Arial" font-size="8.00">org.apache.servicemix.bundles.xpp3(1.1.0.4c_5)</text>
</g>
<!-- org_apache_servicemix_bundles_xstream&#45;&gt;org_apache_servicemix_bundles_xpp3 -->
<g id="edge112" class="edge"><title>org_apache_servicemix_bundles_xstream&#45;&gt;org_apache_servicemix_bundles_xpp3</title>
<path fill="none" stroke="#bdbdbd" d="M2229.76,-222.937C2229.65,-214.807 2229.51,-204.876 2229.38,-195.705"/>
<polygon fill="#bdbdbd" stroke="#bdbdbd" points="2232.88,-195.391 2229.24,-185.441 2225.88,-195.488 2232.88,-195.391"/>
</g>
<!-- org_apache_servicemix_bundles_cglib -->
<g id="node29" class="node"><title>org_apache_servicemix_bundles_cglib</title>
<polygon fill="#bdbdbd" stroke="black" points="1933.18,-149 1933.18,-185 2116.82,-185 2116.82,-149 1933.18,-149"/>
<text text-anchor="middle" x="2025" y="-173" font-family="Arial" font-size="8.00">Apache ServiceMix Bundles: cglib&#45;2.1_3</text>
<polyline fill="none" stroke="black" points="1933.18,-167.801 2116.82,-167.801 "/>
<text text-anchor="middle" x="2025" y="-155.301" font-family="Arial" font-size="8.00">org.apache.servicemix.bundles.cglib(2.1.0.3_4)</text>
</g>
<!-- org_apache_servicemix_bundles_xstream&#45;&gt;org_apache_servicemix_bundles_cglib -->
<g id="edge114" class="edge"><title>org_apache_servicemix_bundles_xstream&#45;&gt;org_apache_servicemix_bundles_cglib</title>
<path fill="none" stroke="#bdbdbd" d="M2181.42,-222.937C2152.04,-212.618 2114.39,-199.397 2083.4,-188.511"/>
<polygon fill="#bdbdbd" stroke="#bdbdbd" points="2084.18,-185.077 2073.59,-185.065 2081.86,-191.681 2084.18,-185.077"/>
</g>
<!-- org_apache_sling_scripting_jsp&#45;&gt;org_apache_felix_scr -->
<g id="edge116" class="edge"><title>org_apache_sling_scripting_jsp&#45;&gt;org_apache_felix_scr</title>
<path fill="none" stroke="#bdbdbd" d="M1601.06,-259.1C1564.99,-269.3 1518.74,-282.8 1478,-296 1442.76,-307.417 1199.89,-398.85 1164,-408 1067.7,-432.55 1038.52,-424.976 936.912,-443.918"/>
<polygon fill="#bdbdbd" stroke="#bdbdbd" points="936.016,-440.526 926.848,-445.836 937.326,-447.402 936.016,-440.526"/>
</g>
<!-- org_apache_sling_scripting_jsp&#45;&gt;org_apache_felix_http_jetty -->
<g id="edge122" class="edge"><title>org_apache_sling_scripting_jsp&#45;&gt;org_apache_felix_http_jetty</title>
<path fill="none" stroke="#bdbdbd" d="M1678.94,-259.24C1716.2,-299.411 1807.1,-396.703 1824,-408 1844.7,-421.837 1869.48,-432.994 1892.18,-441.494"/>
<polygon fill="#bdbdbd" stroke="#bdbdbd" points="1891.17,-444.852 1901.77,-444.975 1893.56,-438.272 1891.17,-444.852"/>
</g>
<!-- org_apache_sling_scripting_jsp&#45;&gt;org_apache_sling_api -->
<g id="edge118" class="edge"><title>org_apache_sling_scripting_jsp&#45;&gt;org_apache_sling_api</title>
<path fill="none" stroke="#bdbdbd" d="M1613.04,-259.003C1540.98,-286.25 1421.53,-343.257 1470,-408 1471.9,-410.535 1536.57,-429.141 1588.71,-443.814"/>
<polygon fill="#bdbdbd" stroke="#bdbdbd" points="1588.04,-447.261 1598.61,-446.596 1589.93,-440.522 1588.04,-447.261"/>
</g>
<!-- org_apache_sling_scripting_jsp&#45;&gt;slf4j_api -->
<g id="edge126" class="edge"><title>org_apache_sling_scripting_jsp&#45;&gt;slf4j_api</title>
<path fill="none" stroke="#bdbdbd" d="M1694.97,-259.069C1768.95,-298.574 1951.9,-396.265 2033.98,-440.098"/>
<polygon fill="#bdbdbd" stroke="#bdbdbd" points="2032.54,-443.297 2043.01,-444.92 2035.84,-437.122 2032.54,-443.297"/>
</g>
<!-- org_apache_sling_commons_classloader -->
<g id="node30" class="node"><title>org_apache_sling_commons_classloader</title>
<polygon fill="#bdbdbd" stroke="black" points="1670.29,-149 1670.29,-185 1847.71,-185 1847.71,-149 1670.29,-149"/>
<text text-anchor="middle" x="1759" y="-173" font-family="Arial" font-size="8.00">Apache Sling Dynamic Class Loader Support</text>
<polyline fill="none" stroke="black" points="1670.29,-167.801 1847.71,-167.801 "/>
<text text-anchor="middle" x="1759" y="-155.301" font-family="Arial" font-size="8.00">org.apache.sling.commons.classloader(1.3.0)</text>
</g>
<!-- org_apache_sling_scripting_jsp&#45;&gt;org_apache_sling_commons_classloader -->
<g id="edge120" class="edge"><title>org_apache_sling_scripting_jsp&#45;&gt;org_apache_sling_commons_classloader</title>
<path fill="none" stroke="#bdbdbd" d="M1685.75,-222.937C1698.33,-213.501 1714.15,-201.639 1727.86,-191.354"/>
<polygon fill="#bdbdbd" stroke="#bdbdbd" points="1730.18,-193.99 1736.08,-185.19 1725.98,-188.39 1730.18,-193.99"/>
</g>
<!-- org_apache_sling_scripting_api -->
<g id="node31" class="node"><title>org_apache_sling_scripting_api</title>
<polygon fill="#bdbdbd" stroke="black" points="1483.96,-149 1483.96,-185 1652.04,-185 1652.04,-149 1483.96,-149"/>
<text text-anchor="middle" x="1568" y="-173" font-family="Arial" font-size="8.00">Apache Sling Scripting Implementation API</text>
<polyline fill="none" stroke="black" points="1483.96,-167.801 1652.04,-167.801 "/>
<text text-anchor="middle" x="1568" y="-155.301" font-family="Arial" font-size="8.00">org.apache.sling.scripting.api(2.1.4)</text>
</g>
<!-- org_apache_sling_scripting_jsp&#45;&gt;org_apache_sling_scripting_api -->
<g id="edge124" class="edge"><title>org_apache_sling_scripting_jsp&#45;&gt;org_apache_sling_scripting_api</title>
<path fill="none" stroke="#bdbdbd" d="M1640.49,-222.937C1628.04,-213.501 1612.38,-201.639 1598.81,-191.354"/>
<polygon fill="#bdbdbd" stroke="#bdbdbd" points="1600.77,-188.441 1590.68,-185.19 1596.54,-194.02 1600.77,-188.441"/>
</g>
<!-- org_apache_sling_scripting_jsp&#45;&gt;org_apache_felix_eventadmin -->
<g id="edge128" class="edge"><title>org_apache_sling_scripting_jsp&#45;&gt;org_apache_felix_eventadmin</title>
<path fill="none" stroke="#bdbdbd" d="M1590.25,-222.937C1544.47,-212.202 1485.31,-198.327 1437.9,-187.207"/>
<polygon fill="#bdbdbd" stroke="#bdbdbd" points="1438.5,-183.754 1427.97,-184.878 1436.9,-190.569 1438.5,-183.754"/>
</g>
<!-- org_apache_sling_commons_classloader&#45;&gt;slf4j_api -->
<g id="edge136" class="edge"><title>org_apache_sling_commons_classloader&#45;&gt;slf4j_api</title>
<path fill="none" stroke="#bdbdbd" d="M1847.81,-180.039C1931.57,-191.976 2046.93,-210.151 2065,-222 2136.59,-268.933 2141.83,-326.711 2115,-408 2111.6,-418.304 2105.39,-428.247 2098.86,-436.733"/>
<polygon fill="#bdbdbd" stroke="#bdbdbd" points="2095.97,-434.745 2092.32,-444.692 2101.37,-439.19 2095.97,-434.745"/>
</g>
<!-- org_apache_felix_eventadmin&#45;&gt;org_apache_felix_metatype -->
<g id="edge138" class="edge"><title>org_apache_felix_eventadmin&#45;&gt;org_apache_felix_metatype</title>
<path fill="none" stroke="#bdbdbd" d="M1292.96,-148.937C1253.93,-138.372 1203.66,-124.766 1162.92,-113.737"/>
<polygon fill="#bdbdbd" stroke="#bdbdbd" points="1163.61,-110.3 1153.05,-111.065 1161.78,-117.056 1163.61,-110.3"/>
</g>
<!-- org_apache_felix_eventadmin&#45;&gt;org_apache_sling_commons_logservice -->
<g id="edge140" class="edge"><title>org_apache_felix_eventadmin&#45;&gt;org_apache_sling_commons_logservice</title>
<path fill="none" stroke="#bdbdbd" d="M1356.77,-148.844C1357.07,-129.949 1355.9,-98.9397 1347,-74 1343.42,-63.9717 1337.58,-53.9888 1331.63,-45.3843"/>
<polygon fill="#bdbdbd" stroke="#bdbdbd" points="1334.45,-43.3075 1325.73,-37.2886 1328.79,-47.4312 1334.45,-43.3075"/>
</g>
<!-- org_apache_felix_eventadmin&#45;&gt;org_apache_felix_configadmin -->
<g id="edge142" class="edge"><title>org_apache_felix_eventadmin&#45;&gt;org_apache_felix_configadmin</title>
<path fill="none" stroke="#bdbdbd" d="M1332.3,-148.937C1319.07,-139.412 1302.41,-127.415 1288.03,-117.063"/>
<polygon fill="#bdbdbd" stroke="#bdbdbd" points="1290.04,-114.193 1279.88,-111.19 1285.95,-119.873 1290.04,-114.193"/>
</g>
</g>
</svg>
