<?xml version="1.0" encoding="UTF-8" standalone="no"?>
<!DOCTYPE svg PUBLIC "-//W3C//DTD SVG 1.1//EN"
 "http://www.w3.org/Graphics/SVG/1.1/DTD/svg11.dtd">
<!-- Generated by graphviz version 2.28.0 (20110509.1545)
 -->
<!-- Title: _anonymous_0 Pages: 1 -->
<svg width="2407pt" height="638pt"
 viewBox="0.00 0.00 2407.00 638.00" xmlns="http://www.w3.org/2000/svg" xmlns:xlink="http://www.w3.org/1999/xlink">
<g id="graph1" class="graph" transform="scale(1 1) rotate(0) translate(4 634)">
<title>_anonymous_0</title>
<polygon fill="white" stroke="white" points="-4,5 -4,-634 2404,-634 2404,5 -4,5"/>
<!-- org_liveSense_service_markdown -->
<g id="node1" class="node"><title>org_liveSense_service_markdown</title>
<polygon fill="yellow" stroke="black" points="1496.2,-593 1496.2,-629 1683.8,-629 1683.8,-593 1496.2,-593"/>
<text text-anchor="middle" x="1590" y="-617" font-family="Arial" font-size="8.00">liveSense :: Service :: Markdown</text>
<polyline fill="none" stroke="black" points="1496.2,-611.801 1683.8,-611.801 "/>
<text text-anchor="middle" x="1590" y="-599.301" font-family="Arial" font-size="8.00">org.liveSense.service.markdown(2&#45;SNAPSHOT)</text>
</g>
<!-- org_apache_felix_scr -->
<g id="node2" class="node"><title>org_apache_felix_scr</title>
<polygon fill="green" stroke="black" points="1668.31,-519 1668.31,-555 1805.69,-555 1805.69,-519 1668.31,-519"/>
<text text-anchor="middle" x="1737" y="-543" font-family="Arial" font-size="8.00">Apache Felix Declarative Services</text>
<polyline fill="none" stroke="black" points="1668.31,-537.801 1805.69,-537.801 "/>
<text text-anchor="middle" x="1737" y="-525.301" font-family="Arial" font-size="8.00">org.apache.felix.scr(1.6.0)</text>
</g>
<!-- org_liveSense_service_markdown&#45;&gt;org_apache_felix_scr -->
<g id="edge2" class="edge"><title>org_liveSense_service_markdown&#45;&gt;org_apache_felix_scr</title>
<path fill="none" stroke="yellow" d="M1624.84,-592.937C1645.27,-582.931 1671.27,-570.196 1693.09,-559.507"/>
<polygon fill="yellow" stroke="yellow" points="1694.72,-562.607 1702.16,-555.065 1691.64,-556.321 1694.72,-562.607"/>
</g>
<!-- org_apache_sling_commons_osgi -->
<g id="node3" class="node"><title>org_apache_sling_commons_osgi</title>
<polygon fill="green" stroke="black" points="1823.75,-519 1823.75,-555 1976.25,-555 1976.25,-519 1823.75,-519"/>
<text text-anchor="middle" x="1900" y="-543" font-family="Arial" font-size="8.00">Apache Sling Commons OSGi support</text>
<polyline fill="none" stroke="black" points="1823.75,-537.801 1976.25,-537.801 "/>
<text text-anchor="middle" x="1900" y="-525.301" font-family="Arial" font-size="8.00">org.apache.sling.commons.osgi(2.1.0)</text>
</g>
<!-- org_liveSense_service_markdown&#45;&gt;org_apache_sling_commons_osgi -->
<g id="edge4" class="edge"><title>org_liveSense_service_markdown&#45;&gt;org_apache_sling_commons_osgi</title>
<path fill="none" stroke="yellow" d="M1663.47,-592.937C1709.52,-582.241 1768.99,-568.428 1816.78,-557.328"/>
<polygon fill="yellow" stroke="yellow" points="1817.84,-560.674 1826.79,-555.003 1816.26,-553.856 1817.84,-560.674"/>
</g>
<!-- org_liveSense_core -->
<g id="node4" class="node"><title>org_liveSense_core</title>
<polygon fill="green" stroke="black" points="766.646,-519 766.646,-555 905.354,-555 905.354,-519 766.646,-519"/>
<text text-anchor="middle" x="836" y="-543" font-family="Arial" font-size="8.00">liveSense :: Core</text>
<polyline fill="none" stroke="black" points="766.646,-537.801 905.354,-537.801 "/>
<text text-anchor="middle" x="836" y="-525.301" font-family="Arial" font-size="8.00">org.liveSense.core(2&#45;SNAPSHOT)</text>
</g>
<!-- org_liveSense_service_markdown&#45;&gt;org_liveSense_core -->
<g id="edge6" class="edge"><title>org_liveSense_service_markdown&#45;&gt;org_liveSense_core</title>
<path fill="none" stroke="yellow" d="M1496.03,-601.027C1346.21,-586.721 1055.87,-558.995 915.628,-545.604"/>
<polygon fill="yellow" stroke="yellow" points="915.673,-542.092 905.386,-544.626 915.008,-549.061 915.673,-542.092"/>
</g>
<!-- slf4j_api -->
<g id="node5" class="node"><title>slf4j_api</title>
<polygon fill="green" stroke="black" points="1409.88,-519 1409.88,-555 1476.12,-555 1476.12,-519 1409.88,-519"/>
<text text-anchor="middle" x="1443" y="-543" font-family="Arial" font-size="8.00">slf4j&#45;api</text>
<polyline fill="none" stroke="black" points="1409.88,-537.801 1476.12,-537.801 "/>
<text text-anchor="middle" x="1443" y="-525.301" font-family="Arial" font-size="8.00">slf4j.api(1.6.1)</text>
</g>
<!-- org_liveSense_service_markdown&#45;&gt;slf4j_api -->
<g id="edge8" class="edge"><title>org_liveSense_service_markdown&#45;&gt;slf4j_api</title>
<path fill="none" stroke="yellow" d="M1555.16,-592.937C1534.36,-582.749 1507.79,-569.732 1485.72,-558.926"/>
<polygon fill="yellow" stroke="yellow" points="1487.1,-555.7 1476.58,-554.445 1484.02,-561.987 1487.1,-555.7"/>
</g>
<!-- org_apache_felix_metatype -->
<g id="node6" class="node"><title>org_apache_felix_metatype</title>
<polygon fill="#3182bd" stroke="black" points="2268.63,-149 2268.63,-185 2399.37,-185 2399.37,-149 2268.63,-149"/>
<text text-anchor="middle" x="2334" y="-173" font-family="Arial" font-size="8.00">Apache Felix Metatype Service</text>
<polyline fill="none" stroke="black" points="2268.63,-167.801 2399.37,-167.801 "/>
<text text-anchor="middle" x="2334" y="-155.301" font-family="Arial" font-size="8.00">org.apache.felix.metatype(1.0.4)</text>
</g>
<!-- org_apache_felix_scr&#45;&gt;org_apache_felix_metatype -->
<g id="edge10" class="edge"><title>org_apache_felix_scr&#45;&gt;org_apache_felix_metatype</title>
<path fill="none" stroke="green" d="M1805.81,-519.654C1808.91,-519.065 1811.99,-518.51 1815,-518 1887.95,-505.66 2081.74,-518.67 2146,-482 2253,-420.941 2259.7,-371.55 2312,-260 2321.66,-239.395 2327.31,-214.14 2330.46,-195.307"/>
<polygon fill="green" stroke="green" points="2333.93,-195.726 2332,-185.31 2327.02,-194.66 2333.93,-195.726"/>
</g>
<!-- org_apache_sling_commons_logservice -->
<g id="node7" class="node"><title>org_apache_sling_commons_logservice</title>
<polygon fill="#3182bd" stroke="black" points="1982.96,-1 1982.96,-37 2167.04,-37 2167.04,-1 1982.96,-1"/>
<text text-anchor="middle" x="2075" y="-25" font-family="Arial" font-size="8.00">Apache Sling OSGi LogService Implementation</text>
<polyline fill="none" stroke="black" points="1982.96,-19.8008 2167.04,-19.8008 "/>
<text text-anchor="middle" x="2075" y="-7.30078" font-family="Arial" font-size="8.00">org.apache.sling.commons.logservice(1.0.0)</text>
</g>
<!-- org_apache_felix_scr&#45;&gt;org_apache_sling_commons_logservice -->
<g id="edge12" class="edge"><title>org_apache_felix_scr&#45;&gt;org_apache_sling_commons_logservice</title>
<path fill="none" stroke="green" d="M1793.57,-518.971C1894.23,-487.852 2094,-422.058 2094,-390 2094,-390 2094,-390 2094,-314 2094,-220.954 2053.27,-203.945 2039,-112 2036.41,-95.3111 2034.11,-90.1642 2039,-74 2042.09,-63.8092 2047.8,-53.7838 2053.78,-45.1903"/>
<polygon fill="green" stroke="green" points="2056.62,-47.2388 2059.76,-37.121 2050.99,-43.07 2056.62,-47.2388"/>
</g>
<!-- org_apache_felix_configadmin -->
<g id="node8" class="node"><title>org_apache_felix_configadmin</title>
<polygon fill="#3182bd" stroke="black" points="2048.29,-75 2048.29,-111 2213.71,-111 2213.71,-75 2048.29,-75"/>
<text text-anchor="middle" x="2131" y="-99" font-family="Arial" font-size="8.00">Apache Felix Configuration Admin Service</text>
<polyline fill="none" stroke="black" points="2048.29,-93.8008 2213.71,-93.8008 "/>
<text text-anchor="middle" x="2131" y="-81.3008" font-family="Arial" font-size="8.00">org.apache.felix.configadmin(1.2.8)</text>
</g>
<!-- org_apache_felix_scr&#45;&gt;org_apache_felix_configadmin -->
<g id="edge14" class="edge"><title>org_apache_felix_scr&#45;&gt;org_apache_felix_configadmin</title>
<path fill="none" stroke="green" d="M1805.82,-519.707C1808.92,-519.103 1811.99,-518.531 1815,-518 1879.6,-506.609 2058.63,-525.204 2108,-482 2139.8,-454.17 2132,-432.257 2132,-390 2132,-390 2132,-390 2132,-240 2132,-198.643 2131.59,-150.699 2131.3,-121.362"/>
<polygon fill="green" stroke="green" points="2134.8,-121.046 2131.19,-111.082 2127.8,-121.118 2134.8,-121.046"/>
</g>
<!-- org_apache_felix_eventadmin -->
<g id="node31" class="node"><title>org_apache_felix_eventadmin</title>
<polygon fill="#bdbdbd" stroke="black" points="2160.18,-223 2160.18,-259 2303.82,-259 2303.82,-223 2160.18,-223"/>
<text text-anchor="middle" x="2232" y="-247" font-family="Arial" font-size="8.00">Apache Felix EventAdmin</text>
<polyline fill="none" stroke="black" points="2160.18,-241.801 2303.82,-241.801 "/>
<text text-anchor="middle" x="2232" y="-229.301" font-family="Arial" font-size="8.00">org.apache.felix.eventadmin(1.2.14)</text>
</g>
<!-- org_apache_sling_commons_osgi&#45;&gt;org_apache_felix_eventadmin -->
<g id="edge16" class="edge"><title>org_apache_sling_commons_osgi&#45;&gt;org_apache_felix_eventadmin</title>
<path fill="none" stroke="green" d="M1976.46,-527.371C2039,-518.869 2121.05,-503.947 2146,-482 2209.63,-426.035 2226.19,-319.548 2230.49,-269.406"/>
<polygon fill="green" stroke="green" points="2233.99,-269.556 2231.25,-259.32 2227.01,-269.028 2233.99,-269.556"/>
</g>
<!-- org_liveSense_core&#45;&gt;org_apache_felix_scr -->
<g id="edge18" class="edge"><title>org_liveSense_core&#45;&gt;org_apache_felix_scr</title>
<path fill="none" stroke="green" d="M905.644,-546.868C1023.25,-562.221 1268.67,-588.623 1476,-574 1537.42,-569.668 1606.36,-559.671 1657.96,-551.16"/>
<polygon fill="green" stroke="green" points="1658.75,-554.576 1668.04,-549.479 1657.6,-547.671 1658.75,-554.576"/>
</g>
<!-- org_liveSense_core&#45;&gt;org_apache_sling_commons_osgi -->
<g id="edge28" class="edge"><title>org_liveSense_core&#45;&gt;org_apache_sling_commons_osgi</title>
<path fill="none" stroke="green" d="M905.541,-543.664C1097.58,-561.428 1632.41,-606.424 1805,-574 1821.27,-570.944 1838.33,-565.183 1853.43,-559.102"/>
<polygon fill="green" stroke="green" points="1855.17,-562.17 1863.04,-555.084 1852.47,-555.711 1855.17,-562.17"/>
</g>
<!-- org_liveSense_core&#45;&gt;slf4j_api -->
<g id="edge40" class="edge"><title>org_liveSense_core&#45;&gt;slf4j_api</title>
<path fill="none" stroke="green" d="M905.354,-537C1070.01,-537 1234.66,-537 1399.32,-537"/>
<polygon fill="green" stroke="green" points="1399.66,-540.5 1409.66,-537 1399.66,-533.5 1399.66,-540.5"/>
</g>
<!-- org_apache_jackrabbit_jackrabbit_jcr_commons -->
<g id="node9" class="node"><title>org_apache_jackrabbit_jackrabbit_jcr_commons</title>
<polygon fill="#3182bd" stroke="black" points="132.74,-445 132.74,-481 333.26,-481 333.26,-445 132.74,-445"/>
<text text-anchor="middle" x="233" y="-469" font-family="Arial" font-size="8.00">Jackrabbit JCR Commons</text>
<polyline fill="none" stroke="black" points="132.74,-463.801 333.26,-463.801 "/>
<text text-anchor="middle" x="233" y="-451.301" font-family="Arial" font-size="8.00">org.apache.jackrabbit.jackrabbit&#45;jcr&#45;commons(2.4.0)</text>
</g>
<!-- org_liveSense_core&#45;&gt;org_apache_jackrabbit_jackrabbit_jcr_commons -->
<g id="edge20" class="edge"><title>org_liveSense_core&#45;&gt;org_apache_jackrabbit_jackrabbit_jcr_commons</title>
<path fill="none" stroke="green" d="M766.46,-529.557C672.92,-520.629 501.155,-503.316 343.729,-482.057"/>
<polygon fill="green" stroke="green" points="343.761,-478.53 333.381,-480.652 342.819,-485.466 343.761,-478.53"/>
</g>
<!-- org_apache_commons_beanutils -->
<g id="node10" class="node"><title>org_apache_commons_beanutils</title>
<polygon fill="#3182bd" stroke="black" points="987.852,-445 987.852,-481 1138.15,-481 1138.15,-445 987.852,-445"/>
<text text-anchor="middle" x="1063" y="-469" font-family="Arial" font-size="8.00">Commons BeanUtils</text>
<polyline fill="none" stroke="black" points="987.852,-463.801 1138.15,-463.801 "/>
<text text-anchor="middle" x="1063" y="-451.301" font-family="Arial" font-size="8.00">org.apache.commons.beanutils(1.8.3)</text>
</g>
<!-- org_liveSense_core&#45;&gt;org_apache_commons_beanutils -->
<g id="edge22" class="edge"><title>org_liveSense_core&#45;&gt;org_apache_commons_beanutils</title>
<path fill="none" stroke="green" d="M889.796,-518.937C922.611,-508.529 964.735,-495.168 999.223,-484.229"/>
<polygon fill="green" stroke="green" points="1000.72,-487.425 1009.2,-481.065 998.607,-480.752 1000.72,-487.425"/>
</g>
<!-- javax_jcr -->
<g id="node11" class="node"><title>javax_jcr</title>
<polygon fill="#3182bd" stroke="black" points="209.031,-297 209.031,-333 392.969,-333 392.969,-297 209.031,-297"/>
<text text-anchor="middle" x="301" y="-321" font-family="Arial" font-size="8.00">Content Repository for JavaTM Technology API</text>
<polyline fill="none" stroke="black" points="209.031,-315.801 392.969,-315.801 "/>
<text text-anchor="middle" x="301" y="-303.301" font-family="Arial" font-size="8.00">javax.jcr(2.0)</text>
</g>
<!-- org_liveSense_core&#45;&gt;javax_jcr -->
<g id="edge24" class="edge"><title>org_liveSense_core&#45;&gt;javax_jcr</title>
<path fill="none" stroke="green" d="M788.845,-518.95C766.381,-509.721 739.739,-497.106 718,-482 698.386,-468.37 700.293,-456.597 680,-444 591.586,-389.115 476.828,-354.628 396.856,-335.464"/>
<polygon fill="green" stroke="green" points="397.327,-331.979 386.791,-333.088 395.719,-338.792 397.327,-331.979"/>
</g>
<!-- org_apache_sling_jcr_api -->
<g id="node12" class="node"><title>org_apache_sling_jcr_api</title>
<polygon fill="#3182bd" stroke="black" points="-0.707031,-371 -0.707031,-407 144.707,-407 144.707,-371 -0.707031,-371"/>
<text text-anchor="middle" x="72" y="-395" font-family="Arial" font-size="8.00">Apache Sling Repository API Bundle</text>
<polyline fill="none" stroke="black" points="-0.707031,-389.801 144.707,-389.801 "/>
<text text-anchor="middle" x="72" y="-377.301" font-family="Arial" font-size="8.00">org.apache.sling.jcr.api(2.1.0)</text>
</g>
<!-- org_liveSense_core&#45;&gt;org_apache_sling_jcr_api -->
<g id="edge26" class="edge"><title>org_liveSense_core&#45;&gt;org_apache_sling_jcr_api</title>
<path fill="none" stroke="green" d="M766.409,-534.418C597.806,-530.064 177.363,-515.905 124,-482 100.739,-467.221 86.8722,-438.111 79.3839,-416.576"/>
<polygon fill="green" stroke="green" points="82.6962,-415.443 76.2941,-407.001 76.0345,-417.593 82.6962,-415.443"/>
</g>
<!-- net_entropysoft_transmorph -->
<g id="node13" class="node"><title>net_entropysoft_transmorph</title>
<polygon fill="#3182bd" stroke="black" points="351.637,-445 351.637,-481 486.363,-481 486.363,-445 351.637,-445"/>
<text text-anchor="middle" x="419" y="-469" font-family="Arial" font-size="8.00">Transmorph</text>
<polyline fill="none" stroke="black" points="351.637,-463.801 486.363,-463.801 "/>
<text text-anchor="middle" x="419" y="-451.301" font-family="Arial" font-size="8.00">net.entropysoft.transmorph(3.1.1)</text>
</g>
<!-- org_liveSense_core&#45;&gt;net_entropysoft_transmorph -->
<g id="edge32" class="edge"><title>org_liveSense_core&#45;&gt;net_entropysoft_transmorph</title>
<path fill="none" stroke="green" d="M766.391,-526.444C699.707,-516.949 596.053,-501.301 496.479,-482.019"/>
<polygon fill="green" stroke="green" points="497.032,-478.561 486.547,-480.081 495.691,-485.431 497.032,-478.561"/>
</g>
<!-- com_google_guava -->
<g id="node14" class="node"><title>com_google_guava</title>
<polygon fill="#3182bd" stroke="black" points="504.85,-445 504.85,-481 671.15,-481 671.15,-445 504.85,-445"/>
<text text-anchor="middle" x="588" y="-469" font-family="Arial" font-size="8.00">Guava: Google Core Libraries for Java 1.5</text>
<polyline fill="none" stroke="black" points="504.85,-463.801 671.15,-463.801 "/>
<text text-anchor="middle" x="588" y="-451.301" font-family="Arial" font-size="8.00">com.google.guava(10.0.0)</text>
</g>
<!-- org_liveSense_core&#45;&gt;com_google_guava -->
<g id="edge34" class="edge"><title>org_liveSense_core&#45;&gt;com_google_guava</title>
<path fill="none" stroke="green" d="M777.227,-518.937C741.069,-508.439 694.565,-494.938 656.708,-483.948"/>
<polygon fill="green" stroke="green" points="657.359,-480.492 646.78,-481.065 655.408,-487.215 657.359,-480.492"/>
</g>
<!-- org_apache_commons_lang -->
<g id="node15" class="node"><title>org_apache_commons_lang</title>
<polygon fill="#3182bd" stroke="black" points="726.637,-445 726.637,-481 853.363,-481 853.363,-445 726.637,-445"/>
<text text-anchor="middle" x="790" y="-469" font-family="Arial" font-size="8.00">Commons Lang</text>
<polyline fill="none" stroke="black" points="726.637,-463.801 853.363,-463.801 "/>
<text text-anchor="middle" x="790" y="-451.301" font-family="Arial" font-size="8.00">org.apache.commons.lang(2.5)</text>
</g>
<!-- org_liveSense_core&#45;&gt;org_apache_commons_lang -->
<g id="edge38" class="edge"><title>org_liveSense_core&#45;&gt;org_apache_commons_lang</title>
<path fill="none" stroke="green" d="M825.099,-518.937C819.566,-510.277 812.727,-499.573 806.56,-489.921"/>
<polygon fill="green" stroke="green" points="809.476,-487.983 801.143,-481.441 803.577,-491.752 809.476,-487.983"/>
</g>
<!-- org_apache_felix_http_jetty -->
<g id="node21" class="node"><title>org_apache_felix_http_jetty</title>
<polygon fill="#bdbdbd" stroke="black" points="1125.97,-149 1125.97,-185 1254.03,-185 1254.03,-149 1125.97,-149"/>
<text text-anchor="middle" x="1190" y="-173" font-family="Arial" font-size="8.00">Apache Felix Http Jetty</text>
<polyline fill="none" stroke="black" points="1125.97,-167.801 1254.03,-167.801 "/>
<text text-anchor="middle" x="1190" y="-155.301" font-family="Arial" font-size="8.00">org.apache.felix.http.jetty(2.2.0)</text>
</g>
<!-- org_liveSense_core&#45;&gt;org_apache_felix_http_jetty -->
<g id="edge30" class="edge"><title>org_liveSense_core&#45;&gt;org_apache_felix_http_jetty</title>
<path fill="none" stroke="green" d="M845.545,-518.945C851.029,-508.538 857.666,-494.813 862,-482 875.379,-442.45 881,-431.752 881,-390 881,-390 881,-390 881,-314 881,-210.631 1024.11,-180.338 1115.54,-171.532"/>
<polygon fill="green" stroke="green" points="1115.95,-175.01 1125.6,-170.63 1115.33,-168.038 1115.95,-175.01"/>
</g>
<!-- org_apache_sling_api -->
<g id="node28" class="node"><title>org_apache_sling_api</title>
<polygon fill="#bdbdbd" stroke="black" points="975.637,-223 975.637,-259 1086.36,-259 1086.36,-223 975.637,-223"/>
<text text-anchor="middle" x="1031" y="-247" font-family="Arial" font-size="8.00">Apache Sling API</text>
<polyline fill="none" stroke="black" points="975.637,-241.801 1086.36,-241.801 "/>
<text text-anchor="middle" x="1031" y="-229.301" font-family="Arial" font-size="8.00">org.apache.sling.api(2.2.4)</text>
</g>
<!-- org_liveSense_core&#45;&gt;org_apache_sling_api -->
<g id="edge36" class="edge"><title>org_liveSense_core&#45;&gt;org_apache_sling_api</title>
<path fill="none" stroke="green" d="M857.759,-518.955C869.637,-508.981 884.1,-495.686 895,-482 951.289,-411.326 998.474,-314.477 1019.4,-268.414"/>
<polygon fill="green" stroke="green" points="1022.67,-269.681 1023.58,-259.125 1016.29,-266.811 1022.67,-269.681"/>
</g>
<!-- ch_qos_logback_classic -->
<g id="node19" class="node"><title>ch_qos_logback_classic</title>
<polygon fill="#bdbdbd" stroke="black" points="1383.64,-445 1383.64,-481 1502.36,-481 1502.36,-445 1383.64,-445"/>
<text text-anchor="middle" x="1443" y="-469" font-family="Arial" font-size="8.00">Logback Classic Module</text>
<polyline fill="none" stroke="black" points="1383.64,-463.801 1502.36,-463.801 "/>
<text text-anchor="middle" x="1443" y="-451.301" font-family="Arial" font-size="8.00">ch.qos.logback.classic(1.0.3)</text>
</g>
<!-- slf4j_api&#45;&gt;ch_qos_logback_classic -->
<g id="edge60" class="edge"><title>slf4j_api&#45;&gt;ch_qos_logback_classic</title>
<path fill="none" stroke="#deebf7" d="M1437.16,-518.937C1436.3,-510.807 1436.05,-500.876 1436.41,-491.705"/>
<polygon fill="#deebf7" stroke="#deebf7" points="1439.92,-491.658 1437.12,-481.441 1432.94,-491.176 1439.92,-491.658"/>
</g>
<!-- org_apache_felix_metatype&#45;&gt;org_apache_sling_commons_logservice -->
<g id="edge42" class="edge"><title>org_apache_felix_metatype&#45;&gt;org_apache_sling_commons_logservice</title>
<path fill="none" stroke="#3182bd" d="M2323.83,-148.785C2310.71,-128.055 2285.98,-93.586 2256,-74 2232.41,-58.5843 2204.25,-47.433 2177.26,-39.4204"/>
<polygon fill="#3182bd" stroke="#3182bd" points="2177.96,-35.9794 2167.38,-36.6083 2176.04,-42.712 2177.96,-35.9794"/>
</g>
<!-- org_apache_sling_commons_logservice&#45;&gt;slf4j_api -->
<g id="edge54" class="edge"><title>org_apache_sling_commons_logservice&#45;&gt;slf4j_api</title>
<path fill="none" stroke="#9ecae1" d="M1982.9,-21.2571C1696.89,-26.3689 843,-51.2399 843,-166 843,-242 843,-242 843,-242 843,-364.602 876.822,-414.243 979,-482 1047.38,-527.345 1297.53,-534.744 1399.4,-535.854"/>
<polygon fill="#9ecae1" stroke="#9ecae1" points="1399.61,-539.356 1409.64,-535.949 1399.68,-532.356 1399.61,-539.356"/>
</g>
<!-- org_apache_felix_configadmin&#45;&gt;org_apache_sling_commons_logservice -->
<g id="edge104" class="edge"><title>org_apache_felix_configadmin&#45;&gt;org_apache_sling_commons_logservice</title>
<path fill="none" stroke="#bdbdbd" d="M2117.73,-74.937C2110.92,-66.1886 2102.5,-55.3545 2094.93,-45.6256"/>
<polygon fill="#bdbdbd" stroke="#bdbdbd" points="2097.47,-43.1854 2088.56,-37.4407 2091.94,-47.483 2097.47,-43.1854"/>
</g>
<!-- org_apache_jackrabbit_jackrabbit_jcr_commons&#45;&gt;javax_jcr -->
<g id="edge44" class="edge"><title>org_apache_jackrabbit_jackrabbit_jcr_commons&#45;&gt;javax_jcr</title>
<path fill="none" stroke="#3182bd" d="M290.843,-444.903C308.444,-436.691 325.812,-424.844 336,-408 348.731,-386.95 336.078,-360.484 322.562,-341.348"/>
<polygon fill="#3182bd" stroke="#3182bd" points="325.184,-339.011 316.38,-333.117 319.587,-343.215 325.184,-339.011"/>
</g>
<!-- org_apache_jackrabbit_jackrabbit_api -->
<g id="node16" class="node"><title>org_apache_jackrabbit_jackrabbit_api</title>
<polygon fill="#9ecae1" stroke="black" points="162.293,-371 162.293,-407 327.707,-407 327.707,-371 162.293,-371"/>
<text text-anchor="middle" x="245" y="-395" font-family="Arial" font-size="8.00">Apache Jackrabbit API</text>
<polyline fill="none" stroke="black" points="162.293,-389.801 327.707,-389.801 "/>
<text text-anchor="middle" x="245" y="-377.301" font-family="Arial" font-size="8.00">org.apache.jackrabbit.jackrabbit&#45;api(2.4.0)</text>
</g>
<!-- org_apache_jackrabbit_jackrabbit_jcr_commons&#45;&gt;org_apache_jackrabbit_jackrabbit_api -->
<g id="edge46" class="edge"><title>org_apache_jackrabbit_jackrabbit_jcr_commons&#45;&gt;org_apache_jackrabbit_jackrabbit_api</title>
<path fill="none" stroke="#3182bd" d="M235.844,-444.937C237.214,-436.719 238.89,-426.66 240.432,-417.406"/>
<polygon fill="#3182bd" stroke="#3182bd" points="243.902,-417.88 242.093,-407.441 236.997,-416.729 243.902,-417.88"/>
</g>
<!-- org_apache_commons_collections -->
<g id="node17" class="node"><title>org_apache_commons_collections</title>
<polygon fill="#9ecae1" stroke="black" points="985.188,-371 985.188,-407 1140.81,-407 1140.81,-371 985.188,-371"/>
<text text-anchor="middle" x="1063" y="-395" font-family="Arial" font-size="8.00">Commons Collections</text>
<polyline fill="none" stroke="black" points="985.188,-389.801 1140.81,-389.801 "/>
<text text-anchor="middle" x="1063" y="-377.301" font-family="Arial" font-size="8.00">org.apache.commons.collections(3.2.1)</text>
</g>
<!-- org_apache_commons_beanutils&#45;&gt;org_apache_commons_collections -->
<g id="edge48" class="edge"><title>org_apache_commons_beanutils&#45;&gt;org_apache_commons_collections</title>
<path fill="none" stroke="#3182bd" d="M1063,-444.937C1063,-436.807 1063,-426.876 1063,-417.705"/>
<polygon fill="#3182bd" stroke="#3182bd" points="1066.5,-417.441 1063,-407.441 1059.5,-417.441 1066.5,-417.441"/>
</g>
<!-- jcl_over_slf4j -->
<g id="node18" class="node"><title>jcl_over_slf4j</title>
<polygon fill="#9ecae1" stroke="black" points="1158.77,-371 1158.77,-407 1239.23,-407 1239.23,-371 1158.77,-371"/>
<text text-anchor="middle" x="1199" y="-395" font-family="Arial" font-size="8.00">jcl&#45;over&#45;slf4j</text>
<polyline fill="none" stroke="black" points="1158.77,-389.801 1239.23,-389.801 "/>
<text text-anchor="middle" x="1199" y="-377.301" font-family="Arial" font-size="8.00">jcl.over.slf4j(1.6.1)</text>
</g>
<!-- org_apache_commons_beanutils&#45;&gt;jcl_over_slf4j -->
<g id="edge50" class="edge"><title>org_apache_commons_beanutils&#45;&gt;jcl_over_slf4j</title>
<path fill="none" stroke="#3182bd" d="M1095.23,-444.937C1113.89,-435.056 1137.58,-422.514 1157.62,-411.91"/>
<polygon fill="#3182bd" stroke="#3182bd" points="1159.33,-414.962 1166.53,-407.19 1156.05,-408.776 1159.33,-414.962"/>
</g>
<!-- org_apache_sling_jcr_api&#45;&gt;javax_jcr -->
<g id="edge52" class="edge"><title>org_apache_sling_jcr_api&#45;&gt;javax_jcr</title>
<path fill="none" stroke="#3182bd" d="M126.27,-370.937C159.516,-360.484 202.234,-347.053 237.109,-336.088"/>
<polygon fill="#3182bd" stroke="#3182bd" points="238.234,-339.403 246.723,-333.065 236.134,-332.726 238.234,-339.403"/>
</g>
<!-- org_apache_jackrabbit_jackrabbit_api&#45;&gt;javax_jcr -->
<g id="edge56" class="edge"><title>org_apache_jackrabbit_jackrabbit_api&#45;&gt;javax_jcr</title>
<path fill="none" stroke="#9ecae1" d="M258.271,-370.937C265.076,-362.189 273.502,-351.354 281.069,-341.626"/>
<polygon fill="#9ecae1" stroke="#9ecae1" points="284.058,-343.483 287.435,-333.441 278.533,-339.185 284.058,-343.483"/>
</g>
<!-- jcl_over_slf4j&#45;&gt;slf4j_api -->
<g id="edge58" class="edge"><title>jcl_over_slf4j&#45;&gt;slf4j_api</title>
<path fill="none" stroke="#9ecae1" d="M1204.62,-407.283C1212.27,-428.082 1227.95,-462.621 1253,-482 1295.88,-515.176 1358.27,-527.97 1399.71,-532.904"/>
<polygon fill="#9ecae1" stroke="#9ecae1" points="1399.45,-536.396 1409.77,-533.996 1400.2,-529.437 1399.45,-536.396"/>
</g>
<!-- ch_qos_logback_classic&#45;&gt;slf4j_api -->
<g id="edge66" class="edge"><title>ch_qos_logback_classic&#45;&gt;slf4j_api</title>
<path fill="none" stroke="#bdbdbd" d="M1448.88,-481.441C1449.72,-489.625 1449.95,-499.572 1449.57,-508.719"/>
<polygon fill="#bdbdbd" stroke="#bdbdbd" points="1446.06,-508.713 1448.84,-518.937 1453.04,-509.212 1446.06,-508.713"/>
</g>
<!-- ch_qos_logback_core -->
<g id="node20" class="node"><title>ch_qos_logback_core</title>
<polygon fill="#bdbdbd" stroke="black" points="1332.86,-371 1332.86,-407 1443.14,-407 1443.14,-371 1332.86,-371"/>
<text text-anchor="middle" x="1388" y="-395" font-family="Arial" font-size="8.00">Logback Core Module</text>
<polyline fill="none" stroke="black" points="1332.86,-389.801 1443.14,-389.801 "/>
<text text-anchor="middle" x="1388" y="-377.301" font-family="Arial" font-size="8.00">ch.qos.logback.core(1.0.3)</text>
</g>
<!-- ch_qos_logback_classic&#45;&gt;ch_qos_logback_core -->
<g id="edge62" class="edge"><title>ch_qos_logback_classic&#45;&gt;ch_qos_logback_core</title>
<path fill="none" stroke="#bdbdbd" d="M1429.97,-444.937C1423.28,-436.189 1415.01,-425.354 1407.58,-415.626"/>
<polygon fill="#bdbdbd" stroke="#bdbdbd" points="1410.17,-413.263 1401.32,-407.441 1404.61,-417.512 1410.17,-413.263"/>
</g>
<!-- ch_qos_logback_classic&#45;&gt;org_apache_felix_http_jetty -->
<g id="edge64" class="edge"><title>ch_qos_logback_classic&#45;&gt;org_apache_felix_http_jetty</title>
<path fill="none" stroke="#bdbdbd" d="M1396.99,-444.887C1374.19,-435.487 1346.75,-422.741 1324,-408 1302.6,-394.133 1303.41,-382.181 1281,-370 1228.7,-341.57 1187.99,-381.41 1152,-334 1146.02,-326.117 1142.91,-253.827 1153,-222 1156.25,-211.763 1162.14,-201.725 1168.28,-193.135"/>
<polygon fill="#bdbdbd" stroke="#bdbdbd" points="1171.14,-195.15 1174.42,-185.073 1165.57,-190.911 1171.14,-195.15"/>
</g>
<!-- groovy_all -->
<g id="node22" class="node"><title>groovy_all</title>
<polygon fill="#bdbdbd" stroke="black" points="1461.1,-371 1461.1,-407 1534.9,-407 1534.9,-371 1461.1,-371"/>
<text text-anchor="middle" x="1498" y="-395" font-family="Arial" font-size="8.00">Groovy Runtime</text>
<polyline fill="none" stroke="black" points="1461.1,-389.801 1534.9,-389.801 "/>
<text text-anchor="middle" x="1498" y="-377.301" font-family="Arial" font-size="8.00">groovy&#45;all(1.8.2)</text>
</g>
<!-- ch_qos_logback_classic&#45;&gt;groovy_all -->
<g id="edge68" class="edge"><title>ch_qos_logback_classic&#45;&gt;groovy_all</title>
<path fill="none" stroke="#bdbdbd" d="M1456.03,-444.937C1462.72,-436.189 1470.99,-425.354 1478.42,-415.626"/>
<polygon fill="#bdbdbd" stroke="#bdbdbd" points="1481.39,-417.512 1484.68,-407.441 1475.83,-413.263 1481.39,-417.512"/>
</g>
<!-- ch_qos_logback_core&#45;&gt;org_apache_felix_http_jetty -->
<g id="edge72" class="edge"><title>ch_qos_logback_core&#45;&gt;org_apache_felix_http_jetty</title>
<path fill="none" stroke="#bdbdbd" d="M1332.66,-373.477C1328.04,-372.291 1323.44,-371.119 1319,-370 1253.36,-353.455 1212.83,-387.225 1171,-334 1139.38,-293.765 1160.36,-230.153 1176.46,-194.49"/>
<polygon fill="#bdbdbd" stroke="#bdbdbd" points="1179.74,-195.753 1180.83,-185.214 1173.4,-192.772 1179.74,-195.753"/>
</g>
<!-- org_glassfish_javax_mail -->
<g id="node23" class="node"><title>org_glassfish_javax_mail</title>
<polygon fill="#bdbdbd" stroke="black" points="1179.75,-297 1179.75,-333 1332.25,-333 1332.25,-297 1179.75,-297"/>
<text text-anchor="middle" x="1256" y="-321" font-family="Arial" font-size="8.00">javax.mail API v.1.4</text>
<polyline fill="none" stroke="black" points="1179.75,-315.801 1332.25,-315.801 "/>
<text text-anchor="middle" x="1256" y="-303.301" font-family="Arial" font-size="8.00">org.glassfish.javax.mail(3.0.0.Preview)</text>
</g>
<!-- ch_qos_logback_core&#45;&gt;org_glassfish_javax_mail -->
<g id="edge70" class="edge"><title>ch_qos_logback_core&#45;&gt;org_glassfish_javax_mail</title>
<path fill="none" stroke="#bdbdbd" d="M1356.72,-370.937C1338.68,-361.101 1315.82,-348.627 1296.43,-338.053"/>
<polygon fill="#bdbdbd" stroke="#bdbdbd" points="1297.97,-334.906 1287.52,-333.19 1294.62,-341.051 1297.97,-334.906"/>
</g>
<!-- org_apache_felix_http_jetty&#45;&gt;slf4j_api -->
<g id="edge82" class="edge"><title>org_apache_felix_http_jetty&#45;&gt;slf4j_api</title>
<path fill="none" stroke="#bdbdbd" d="M1254.31,-167.312C1360.42,-167.575 1565.58,-174.431 1617,-222 1647.65,-250.352 1636,-272.248 1636,-314 1636,-390 1636,-390 1636,-390 1636,-464.711 1542.88,-506.075 1486,-524.371"/>
<polygon fill="#bdbdbd" stroke="#bdbdbd" points="1484.69,-521.113 1476.18,-527.42 1486.77,-527.799 1484.69,-521.113"/>
</g>
<!-- org_apache_felix_http_jetty&#45;&gt;org_apache_sling_commons_logservice -->
<g id="edge80" class="edge"><title>org_apache_felix_http_jetty&#45;&gt;org_apache_sling_commons_logservice</title>
<path fill="none" stroke="#bdbdbd" d="M1254.36,-155.382C1406.39,-130.302 1788.77,-67.22 1972.85,-36.8516"/>
<polygon fill="#bdbdbd" stroke="#bdbdbd" points="1973.51,-40.2902 1982.81,-35.209 1972.37,-33.3835 1973.51,-40.2902"/>
</g>
<!-- org_apache_felix_http_jetty&#45;&gt;org_apache_felix_configadmin -->
<g id="edge84" class="edge"><title>org_apache_felix_http_jetty&#45;&gt;org_apache_felix_configadmin</title>
<path fill="none" stroke="#bdbdbd" d="M1254.31,-161.079C1417.38,-148.602 1847.55,-115.688 2038,-101.116"/>
<polygon fill="#bdbdbd" stroke="#bdbdbd" points="2038.29,-104.604 2047.99,-100.351 2037.75,-97.6245 2038.29,-104.604"/>
</g>
<!-- groovy_all&#45;&gt;org_apache_felix_http_jetty -->
<g id="edge76" class="edge"><title>groovy_all&#45;&gt;org_apache_felix_http_jetty</title>
<path fill="none" stroke="#bdbdbd" d="M1463.44,-370.984C1443.42,-360.812 1417.92,-347.312 1396,-334 1370.6,-318.578 1367.94,-308.532 1341,-296 1285.86,-270.351 1250.63,-304.323 1209,-260 1192.91,-242.87 1188.91,-215.874 1188.49,-195.547"/>
<polygon fill="#bdbdbd" stroke="#bdbdbd" points="1192,-195.354 1188.57,-185.33 1185,-195.305 1192,-195.354"/>
</g>
<!-- org_apache_servicemix_bundles_xstream -->
<g id="node24" class="node"><title>org_apache_servicemix_bundles_xstream</title>
<polygon fill="#bdbdbd" stroke="black" points="1404.63,-297 1404.63,-333 1591.37,-333 1591.37,-297 1404.63,-297"/>
<text text-anchor="middle" x="1498" y="-321" font-family="Arial" font-size="8.00">Apache ServiceMix :: Bundles :: xstream</text>
<polyline fill="none" stroke="black" points="1404.63,-315.801 1591.37,-315.801 "/>
<text text-anchor="middle" x="1498" y="-303.301" font-family="Arial" font-size="8.00">org.apache.servicemix.bundles.xstream(1.4.1.1)</text>
</g>
<!-- groovy_all&#45;&gt;org_apache_servicemix_bundles_xstream -->
<g id="edge74" class="edge"><title>groovy_all&#45;&gt;org_apache_servicemix_bundles_xstream</title>
<path fill="none" stroke="#bdbdbd" d="M1498,-370.937C1498,-362.807 1498,-352.876 1498,-343.705"/>
<polygon fill="#bdbdbd" stroke="#bdbdbd" points="1501.5,-343.441 1498,-333.441 1494.5,-343.441 1501.5,-343.441"/>
</g>
<!-- org_apache_sling_scripting_jsp -->
<g id="node25" class="node"><title>org_apache_sling_scripting_jsp</title>
<polygon fill="#bdbdbd" stroke="black" points="1663.63,-297 1663.63,-333 1810.37,-333 1810.37,-297 1663.63,-297"/>
<text text-anchor="middle" x="1737" y="-321" font-family="Arial" font-size="8.00">Apache Sling Scripting JSP Support</text>
<polyline fill="none" stroke="black" points="1663.63,-315.801 1810.37,-315.801 "/>
<text text-anchor="middle" x="1737" y="-303.301" font-family="Arial" font-size="8.00">org.apache.sling.scripting.jsp(2.0.24)</text>
</g>
<!-- groovy_all&#45;&gt;org_apache_sling_scripting_jsp -->
<g id="edge78" class="edge"><title>groovy_all&#45;&gt;org_apache_sling_scripting_jsp</title>
<path fill="none" stroke="#bdbdbd" d="M1535.08,-376.829C1571.16,-365.959 1626.79,-349.202 1670.53,-336.026"/>
<polygon fill="#bdbdbd" stroke="#bdbdbd" points="1671.67,-339.337 1680.23,-333.102 1669.65,-332.635 1671.67,-339.337"/>
</g>
<!-- org_apache_servicemix_bundles_xpp3 -->
<g id="node26" class="node"><title>org_apache_servicemix_bundles_xpp3</title>
<polygon fill="#bdbdbd" stroke="black" points="1419.73,-223 1419.73,-259 1608.27,-259 1608.27,-223 1419.73,-223"/>
<text text-anchor="middle" x="1514" y="-247" font-family="Arial" font-size="8.00">Apache ServiceMix :: Bundles :: xpp3</text>
<polyline fill="none" stroke="black" points="1419.73,-241.801 1608.27,-241.801 "/>
<text text-anchor="middle" x="1514" y="-229.301" font-family="Arial" font-size="8.00">org.apache.servicemix.bundles.xpp3(1.1.0.4c_5)</text>
</g>
<!-- org_apache_servicemix_bundles_xstream&#45;&gt;org_apache_servicemix_bundles_xpp3 -->
<g id="edge86" class="edge"><title>org_apache_servicemix_bundles_xstream&#45;&gt;org_apache_servicemix_bundles_xpp3</title>
<path fill="none" stroke="#bdbdbd" d="M1501.79,-296.937C1503.62,-288.719 1505.85,-278.66 1507.91,-269.406"/>
<polygon fill="#bdbdbd" stroke="#bdbdbd" points="1511.37,-269.962 1510.12,-259.441 1504.54,-268.443 1511.37,-269.962"/>
</g>
<!-- org_apache_servicemix_bundles_cglib -->
<g id="node27" class="node"><title>org_apache_servicemix_bundles_cglib</title>
<polygon fill="#bdbdbd" stroke="black" points="1218.18,-223 1218.18,-259 1401.82,-259 1401.82,-223 1218.18,-223"/>
<text text-anchor="middle" x="1310" y="-247" font-family="Arial" font-size="8.00">Apache ServiceMix Bundles: cglib&#45;2.1_3</text>
<polyline fill="none" stroke="black" points="1218.18,-241.801 1401.82,-241.801 "/>
<text text-anchor="middle" x="1310" y="-229.301" font-family="Arial" font-size="8.00">org.apache.servicemix.bundles.cglib(2.1.0.3_4)</text>
</g>
<!-- org_apache_servicemix_bundles_xstream&#45;&gt;org_apache_servicemix_bundles_cglib -->
<g id="edge88" class="edge"><title>org_apache_servicemix_bundles_xstream&#45;&gt;org_apache_servicemix_bundles_cglib</title>
<path fill="none" stroke="#bdbdbd" d="M1453.45,-296.937C1426.62,-286.663 1392.28,-273.511 1363.93,-262.652"/>
<polygon fill="#bdbdbd" stroke="#bdbdbd" points="1365.15,-259.373 1354.56,-259.065 1362.65,-265.91 1365.15,-259.373"/>
</g>
<!-- org_apache_sling_scripting_jsp&#45;&gt;org_apache_felix_scr -->
<g id="edge90" class="edge"><title>org_apache_sling_scripting_jsp&#45;&gt;org_apache_felix_scr</title>
<path fill="none" stroke="#bdbdbd" d="M1737,-333.183C1737,-371.181 1737,-462.609 1737,-508.602"/>
<polygon fill="#bdbdbd" stroke="#bdbdbd" points="1733.5,-508.737 1737,-518.737 1740.5,-508.737 1733.5,-508.737"/>
</g>
<!-- org_apache_sling_scripting_jsp&#45;&gt;slf4j_api -->
<g id="edge100" class="edge"><title>org_apache_sling_scripting_jsp&#45;&gt;slf4j_api</title>
<path fill="none" stroke="#bdbdbd" d="M1733,-333.059C1724.15,-366.869 1699.67,-442.519 1650,-482 1602.66,-519.628 1531.81,-531.236 1486.5,-534.701"/>
<polygon fill="#bdbdbd" stroke="#bdbdbd" points="1486.14,-531.217 1476.4,-535.371 1486.61,-538.201 1486.14,-531.217"/>
</g>
<!-- org_apache_sling_scripting_jsp&#45;&gt;org_apache_felix_http_jetty -->
<g id="edge96" class="edge"><title>org_apache_sling_scripting_jsp&#45;&gt;org_apache_felix_http_jetty</title>
<path fill="none" stroke="#bdbdbd" d="M1723.23,-296.835C1703.51,-272.752 1667.68,-230.873 1650,-222 1584.14,-188.951 1376.81,-175.546 1264.33,-170.596"/>
<polygon fill="#bdbdbd" stroke="#bdbdbd" points="1264.22,-167.089 1254.08,-170.157 1263.92,-174.082 1264.22,-167.089"/>
</g>
<!-- org_apache_sling_scripting_jsp&#45;&gt;org_apache_sling_api -->
<g id="edge92" class="edge"><title>org_apache_sling_scripting_jsp&#45;&gt;org_apache_sling_api</title>
<path fill="none" stroke="#bdbdbd" d="M1663.48,-303.806C1642.95,-301.105 1620.62,-298.303 1600,-296 1426.57,-276.63 1382.7,-276.779 1209,-260 1171.88,-256.414 1130.42,-252.232 1096.86,-248.802"/>
<polygon fill="#bdbdbd" stroke="#bdbdbd" points="1097.01,-245.3 1086.71,-247.763 1096.3,-252.263 1097.01,-245.3"/>
</g>
<!-- org_apache_sling_commons_classloader -->
<g id="node29" class="node"><title>org_apache_sling_commons_classloader</title>
<polygon fill="#bdbdbd" stroke="black" points="1888.29,-223 1888.29,-259 2065.71,-259 2065.71,-223 1888.29,-223"/>
<text text-anchor="middle" x="1977" y="-247" font-family="Arial" font-size="8.00">Apache Sling Dynamic Class Loader Support</text>
<polyline fill="none" stroke="black" points="1888.29,-241.801 2065.71,-241.801 "/>
<text text-anchor="middle" x="1977" y="-229.301" font-family="Arial" font-size="8.00">org.apache.sling.commons.classloader(1.3.0)</text>
</g>
<!-- org_apache_sling_scripting_jsp&#45;&gt;org_apache_sling_commons_classloader -->
<g id="edge94" class="edge"><title>org_apache_sling_scripting_jsp&#45;&gt;org_apache_sling_commons_classloader</title>
<path fill="none" stroke="#bdbdbd" d="M1793.88,-296.937C1828.87,-286.439 1873.87,-272.938 1910.51,-261.948"/>
<polygon fill="#bdbdbd" stroke="#bdbdbd" points="1911.54,-265.291 1920.12,-259.065 1909.53,-258.586 1911.54,-265.291"/>
</g>
<!-- org_apache_sling_scripting_api -->
<g id="node30" class="node"><title>org_apache_sling_scripting_api</title>
<polygon fill="#bdbdbd" stroke="black" points="1701.96,-223 1701.96,-259 1870.04,-259 1870.04,-223 1701.96,-223"/>
<text text-anchor="middle" x="1786" y="-247" font-family="Arial" font-size="8.00">Apache Sling Scripting Implementation API</text>
<polyline fill="none" stroke="black" points="1701.96,-241.801 1870.04,-241.801 "/>
<text text-anchor="middle" x="1786" y="-229.301" font-family="Arial" font-size="8.00">org.apache.sling.scripting.api(2.1.4)</text>
</g>
<!-- org_apache_sling_scripting_jsp&#45;&gt;org_apache_sling_scripting_api -->
<g id="edge98" class="edge"><title>org_apache_sling_scripting_jsp&#45;&gt;org_apache_sling_scripting_api</title>
<path fill="none" stroke="#bdbdbd" d="M1748.61,-296.937C1754.51,-288.277 1761.79,-277.573 1768.36,-267.921"/>
<polygon fill="#bdbdbd" stroke="#bdbdbd" points="1771.4,-269.677 1774.13,-259.441 1765.61,-265.739 1771.4,-269.677"/>
</g>
<!-- org_apache_sling_scripting_jsp&#45;&gt;org_apache_felix_eventadmin -->
<g id="edge102" class="edge"><title>org_apache_sling_scripting_jsp&#45;&gt;org_apache_felix_eventadmin</title>
<path fill="none" stroke="#bdbdbd" d="M1810.57,-303.299C1901.39,-290.089 2055.39,-267.689 2149.94,-253.935"/>
<polygon fill="#bdbdbd" stroke="#bdbdbd" points="2150.65,-257.37 2160.04,-252.467 2149.64,-250.443 2150.65,-257.37"/>
</g>
<!-- org_apache_sling_api&#45;&gt;slf4j_api -->
<g id="edge108" class="edge"><title>org_apache_sling_api&#45;&gt;slf4j_api</title>
<path fill="none" stroke="#bdbdbd" d="M1047.78,-259.115C1068.51,-279.425 1105.64,-313.155 1143,-334 1186.08,-358.04 1207.09,-342.43 1248,-370 1266.55,-382.501 1264.82,-392.554 1281,-408 1322.95,-448.045 1376.58,-488.598 1410.37,-513.023"/>
<polygon fill="#bdbdbd" stroke="#bdbdbd" points="1408.35,-515.883 1418.52,-518.875 1412.44,-510.198 1408.35,-515.883"/>
</g>
<!-- org_apache_sling_api&#45;&gt;org_apache_felix_http_jetty -->
<g id="edge106" class="edge"><title>org_apache_sling_api&#45;&gt;org_apache_felix_http_jetty</title>
<path fill="none" stroke="#bdbdbd" d="M1068.68,-222.937C1090.98,-212.841 1119.4,-199.968 1143.14,-189.221"/>
<polygon fill="#bdbdbd" stroke="#bdbdbd" points="1144.65,-192.379 1152.31,-185.065 1141.76,-186.002 1144.65,-192.379"/>
</g>
<!-- org_apache_sling_commons_classloader&#45;&gt;slf4j_api -->
<g id="edge110" class="edge"><title>org_apache_sling_commons_classloader&#45;&gt;slf4j_api</title>
<path fill="none" stroke="#bdbdbd" d="M1961.63,-259.083C1920.8,-303.362 1804.32,-422.525 1682,-482 1618.07,-513.086 1535.76,-526.598 1486.31,-532.233"/>
<polygon fill="#bdbdbd" stroke="#bdbdbd" points="1485.84,-528.764 1476.27,-533.32 1486.59,-535.723 1485.84,-528.764"/>
</g>
<!-- org_apache_felix_eventadmin&#45;&gt;org_apache_felix_metatype -->
<g id="edge112" class="edge"><title>org_apache_felix_eventadmin&#45;&gt;org_apache_felix_metatype</title>
<path fill="none" stroke="#bdbdbd" d="M2256.17,-222.937C2269.67,-213.412 2286.66,-201.415 2301.33,-191.063"/>
<polygon fill="#bdbdbd" stroke="#bdbdbd" points="2303.5,-193.816 2309.65,-185.19 2299.46,-188.098 2303.5,-193.816"/>
</g>
<!-- org_apache_felix_eventadmin&#45;&gt;org_apache_sling_commons_logservice -->
<g id="edge114" class="edge"><title>org_apache_felix_eventadmin&#45;&gt;org_apache_sling_commons_logservice</title>
<path fill="none" stroke="#bdbdbd" d="M2236.52,-222.912C2244.05,-190.357 2255.25,-118.713 2222,-74 2210.53,-58.5802 2194.19,-47.5588 2176.54,-39.6824"/>
<polygon fill="#bdbdbd" stroke="#bdbdbd" points="2177.79,-36.412 2167.21,-35.8435 2175.13,-42.8855 2177.79,-36.412"/>
</g>
<!-- org_apache_felix_eventadmin&#45;&gt;org_apache_felix_configadmin -->
<g id="edge116" class="edge"><title>org_apache_felix_eventadmin&#45;&gt;org_apache_felix_configadmin</title>
<path fill="none" stroke="#bdbdbd" d="M2220.22,-222.966C2202.67,-197.607 2169.55,-149.73 2148.97,-119.983"/>
<polygon fill="#bdbdbd" stroke="#bdbdbd" points="2151.59,-117.611 2143.02,-111.378 2145.83,-121.593 2151.59,-117.611"/>
</g>
</g>
</svg>
